<!-- Generated by IcoMoon.io -->
<svg version="1.1" xmlns="http://www.w3.org/2000/svg" width="1024" height="1024" viewBox="0 0 1024 1024">
<title>concrete-mixer</title>
<g id="icomoon-ignore">
</g>
<path d="M209.269 141.137c74.771-51.846 174.293-40.882 236.171 21.544l-54.973 38.118c-40.224-33.219-99.088-37.181-144.094-5.974s-62.029 87.786-45.149 137.192l-200.346 138.917c12.534 18.137 26.616 34.945 42.020 50.279 51.109 50.881 116.762 85.533 188.676 98.611 93.588 17.020 190.115-3.892 268.345-58.136 33.823-23.452 63.027-52.304 86.662-85.077l135.342 195.859c13.625 19.714 8.755 46.747-10.86 60.473l-125.453 86.988c-19.732 13.556-46.707 8.605-60.331-11.11l-135.353-195.845c-23.222 6.334-47.050 10.32-71.12 11.879l152.842 221.153c22.89 33.12 60.849 49.573 98.259 46.519l51.561 74.605c34.154 49.42 101.859 61.728 151.225 27.499l0.343-0.239c9.005 5.011 20.771 10.846 34.168 15.758 29.316 10.727 76.042 20.331 116.377-7.635l81.083-57.028c0 0 0-0.001-18.552-26.845s-18.553-26.843-18.553-26.843l-81.081 57.027c-13.078 9.068-32.431 8.699-55.697 0.399 29.914-36.627 33.427-90.011 5.209-130.839l-51.561-74.605c16.024-33.997 14.014-75.377-8.876-108.497l-152.858-221.118c11.949-26.48 20.741-54.524 26.027-83.586 0.305-1.678 0.598-3.357 0.879-5.037l190.707-132.233 18.552 26.844 53.631-37.187-123.681-178.958-53.63 37.187 18.551 26.844-118.441 82.126c-3.602-10.563-7.7-20.971-12.287-31.188-8.906-19.84-19.655-38.96-32.188-57.096l-91.118 63.179c-82.927-91.867-223.079-110.037-327.531-37.611s-136.817 210.216-80.169 320.305l54.256-37.621c-36.548-79.989-11.754-177.152 63.018-228.997zM790.834 121.726l12.369 17.896-143.104 99.227-0.876-25.864 131.612-91.258zM675.098 929.947l-43.288-62.635 107.261-74.373 43.288 62.635c13.662 19.767 8.729 46.891-11.017 60.583l-35.754 24.791c-19.746 13.692-46.828 8.767-60.49-11.001zM382.422 391.678c45.005-31.206 62.029-87.787 45.148-137.192l140.683-97.547c20.396 50.963 26.291 107.081 16.308 161.974-13.947 76.69-57.741 144.707-121.747 189.088s-142.983 61.492-219.556 47.566c-54.809-9.968-105.173-35.251-145.613-72.316l140.682-97.546c40.224 33.219 99.087 37.18 144.094 5.974zM345.318 337.991c-24.682 17.115-58.535 10.958-75.612-13.75s-10.911-58.614 13.771-75.728c24.683-17.115 58.536-10.959 75.613 13.75s10.911 58.614-13.772 75.728z"></path>
</svg>
