<!-- Generated by IcoMoon.io -->
<svg version="1.1" xmlns="http://www.w3.org/2000/svg" width="1024" height="1024" viewBox="0 0 1024 1024">
<title></title>
<g id="icomoon-ignore">
</g>
<path d="M298.252 149.126h59.65v59.65h-59.65v-59.65z"></path>
<path d="M487.146 725.748h357.903v-188.893h-357.903v188.893zM546.796 666.097v-69.592h238.602v69.592h-238.602z"></path>
<path d="M308.194 815.223h-59.65v59.65h59.65v-59.65z"></path>
<path d="M708.313 149.977l-335.935-113.462c-13.996-4.348-28.875-6.69-44.3-6.69-82.36 0-149.126 66.766-149.126 149.126 0 48.789 23.43 92.105 59.65 119.312v89.465h-79.534c-87.851 0-159.068 71.217-159.068 159.068v169.010c0 78.544 56.927 143.791 131.772 156.735 12.901 69.227 73.629 121.634 146.597 121.634 72.146 0 132.326-51.233 146.143-119.301h360.886v59.65h-59.65v59.65h178.951v-59.65h-59.65v-59.65h19.883c87.851 0 159.068-71.217 159.068-159.068v-169.010c0-87.851-71.217-159.068-159.068-159.068h-79.534v-149.126c0-45.212-33.534-82.591-77.085-88.625zM328.078 268.427c-49.416 0-89.476-40.059-89.476-89.476s40.059-89.476 89.476-89.476c49.416 0 89.476 40.059 89.476 89.476s-40.059 89.476-89.476 89.476zM477.204 178.951c0-16.309-2.618-32.006-7.457-46.695l154.813 52.363c-11.368 15.005-18.113 33.707-18.113 53.983 0 10.458 1.794 20.497 5.091 29.825h-164.148c18.721-24.924 29.814-55.904 29.814-89.476zM725.748 328.078v59.65h-427.495v-59.65h427.495zM695.922 208.777c16.472 0 29.825 13.353 29.825 29.825s-13.353 29.825-29.825 29.825c-16.472 0-29.825-13.353-29.825-29.825s13.353-29.825 29.825-29.825zM864.932 447.379c54.907 0 99.417 44.51 99.417 99.417v169.010c0 54.906-44.51 99.417-99.417 99.417h-440.42c-13.817-68.068-73.996-119.301-146.143-119.301-70.918 0-130.275 49.504-145.398 115.84-42.247-11.462-73.32-50.081-73.32-95.957v-169.010c0-54.906 44.511-99.417 99.417-99.417h705.864zM367.845 845.049c0 49.416-40.059 89.476-89.476 89.476s-89.476-40.059-89.476-89.476c0-49.416 40.059-89.476 89.476-89.476s89.476 40.059 89.476 89.476z"></path>
</svg>
