<!-- Generated by IcoMoon.io -->
<svg version="1.1" xmlns="http://www.w3.org/2000/svg" width="1024" height="1024" viewBox="0 0 1024 1024">
<title>concrete-mixer</title>
<g id="icomoon-ignore">
</g>
<path d="M992.492 320.985c-13.785-17.723-27.569-35.446-39.385-53.169-5.908-7.877-11.815-11.815-21.662-11.815-45.292 0-90.585 0-133.908 0-15.754 0-19.692 5.908-21.662 21.662 0 11.815 0 21.662 0 33.477 0 9.846-1.969 11.815-11.815 11.815-35.446 0-27.569 3.938-41.354-25.6-25.6-61.046-51.2-122.092-78.769-181.169 0-1.969-1.969-3.938-1.969-5.908-3.938-11.815-13.785-17.723-25.6-17.723-23.631 0-47.262 0-70.892 0-45.292 0-90.585 0-135.877 0-15.754 0-25.6 5.908-31.508 19.692-27.569 64.985-55.138 129.969-82.708 192.985 0 1.969-1.969 3.938-1.969 5.908-1.969 9.846-9.846 11.815-17.723 11.815-5.908 0-11.815 0-17.723 0-7.877 0-11.815-3.938-11.815-11.815 0-11.815 0-21.662 0-33.477 0-15.754-5.908-21.662-21.662-21.662-17.723 0-35.446 0-53.169 0-15.754 0-19.692 3.938-19.692 19.692 0 3.938 0 7.877-1.969 9.846 0 0 0 0 0 0s0 0 0 0 0 0 0 0c-3.938 0-5.908-3.938-7.877-7.877-9.846-23.631-21.662-47.262-29.538-70.892-7.877-21.662-31.508-35.446-51.2-33.477-21.662 3.938-39.385 23.631-39.385 47.262 0 98.462 0 196.923 0 295.385 0 27.569 19.692 47.262 47.262 47.262 25.6 0 45.292-19.692 45.292-45.292 0-7.877 1.969-15.754 5.908-21.662 7.877-15.754 15.754-29.538 23.631-45.292 1.969-1.969 1.969-5.908 5.908-5.908 0 0 0-1.969 1.969-1.969 0 0 0 1.969 0 1.969 1.969 1.969 1.969 5.908 1.969 7.877s0 5.908 0 7.877c0 82.708 0 165.415 0 250.092 0 11.815-3.938 17.723-13.785 23.631-43.323 23.631-66.954 61.046-68.923 110.277-1.969 27.569 5.908 53.169 21.662 74.831 25.6 37.415 61.046 57.108 106.338 57.108 57.108 0 102.4-33.477 120.123-82.708 3.938-11.815 9.846-19.692 23.631-21.662 112.246-21.662 224.492-45.292 336.738-66.954 21.662-3.938 21.662-3.938 17.723 17.723-15.754 72.862 37.415 143.754 112.246 153.6 72.862 7.877 135.877-47.262 141.785-114.215 5.908-57.108-19.692-98.462-68.923-128-9.846-5.908-13.785-11.815-13.785-23.631 0-5.908 0-13.785 0-19.692 0-7.877 3.938-9.846 9.846-9.846 9.846 0 19.692 0 31.508 0 19.692 0 23.631-3.938 23.631-23.631 0-9.846 0-19.692 0-31.508 0-7.877 3.938-11.815 11.815-11.815 9.846 0 19.692 0 31.508 0 7.877 0 15.754 0 21.662-7.877 1.969-1.969 1.969-1.969 3.938-1.969 0-92.554 0-183.138 0-275.692-3.938 0-5.908-3.938-9.846-7.877zM82.708 512c0 11.815-5.908 21.662-15.754 19.692-9.846 0-15.754-7.877-15.754-19.692 0-96.492 0-191.015 0-287.508 0-13.785 5.908-19.692 17.723-19.692 9.846 0 15.754 7.877 15.754 19.692 0 47.262 0 96.492 0 143.754-1.969 49.231-1.969 96.492-1.969 143.754zM131.938 399.754c-3.938 9.846-7.877 17.723-13.785 25.6 0 0-1.969 0-1.969 0 0-11.815 0-23.631 0-35.446 0-3.938 1.969-5.908 5.908-5.908 5.908 0 11.815-1.969 13.785 1.969 3.938 3.938-1.969 7.877-3.938 13.785zM116.185 330.831c0-9.846 0-17.723 0-27.569 0 0 1.969 0 1.969 0 7.877 15.754 13.785 31.508 21.662 49.231-23.631 0-23.631 0-23.631-21.662zM807.385 297.354c0-7.877 1.969-11.815 11.815-11.815 21.662 0 21.662 0 21.662 21.662 0 64.985 0 128 0 192.985 0 68.923 0 135.877 0 204.8 0 5.908 0 9.846-7.877 9.846s-17.723 1.969-21.662-1.969c-7.877-3.938-3.938-15.754-3.938-23.631 0-129.969 0-259.938 0-391.877zM756.185 352.492c15.754 0 15.754 0 15.754 17.723 0 15.754 0 15.754-15.754 15.754s-15.754 0-15.754-15.754c0-17.723 0-17.723 15.754-17.723zM703.015 498.215c-11.815 45.292-55.138 82.708-100.431 82.708-61.046 1.969-122.092 1.969-181.169 0-57.108-1.969-104.369-51.2-106.338-110.277 0-15.754 0-29.538 0-45.292 0-7.877 1.969-7.877 7.877-7.877 63.015 0 126.031 0 189.046 0s124.062 0 187.077 0c7.877 0 9.846 1.969 9.846 9.846-3.938 23.631 0 47.262-5.908 70.892zM360.369 232.369c13.785-33.477 29.538-66.954 43.323-102.4 1.969-5.908 5.908-7.877 11.815-7.877 64.985 0 128 0 192.985 0 5.908 0 7.877 1.969 9.846 5.908 25.6 61.046 53.169 122.092 78.769 185.108 0 1.969 1.969 1.969 1.969 5.908-126.031 0-250.092 0-376.123 0 11.815-29.538 25.6-59.077 37.415-86.646zM315.077 352.492c3.938-3.938 13.785-1.969 21.662-1.969 120.123 0 240.246 0 358.4 0 9.846 0 11.815 1.969 9.846 11.815 0 21.662 0 21.662-21.662 21.662-59.077 0-118.154 0-175.262 0-63.015 0-124.062 0-187.077 0-7.877 0-9.846-1.969-9.846-9.846 3.938-5.908 0-15.754 3.938-21.662zM265.846 352.492c1.969 0 1.969 0 3.938 0 7.877-1.969 11.815 1.969 9.846 9.846 0 1.969 0 3.938 0 5.908 0 15.754 0 15.754-15.754 15.754s-15.754 0-15.754-13.785c0-17.723 0-17.723 17.723-17.723zM248.123 427.323c0-7.877 1.969-9.846 9.846-9.846 21.662 0 23.631 0 21.662 21.662 0 25.6 0 53.169 9.846 76.8 19.692 57.108 76.8 96.492 135.877 96.492 55.138 0 112.246 0 167.385 0 82.708 0 141.785-64.985 145.723-133.908 1.969-17.723 0-35.446 0-53.169 0-5.908 0-9.846 7.877-9.846 23.631 0 23.631 0 23.631 23.631 0 64.985 0 129.969 0 194.954 0 7.877-1.969 9.846-9.846 9.846-84.677 0-167.385 0-252.062 0s-167.385 0-252.062 0c-7.877 0-9.846-1.969-9.846-9.846 1.969-66.954 1.969-137.846 1.969-206.769zM248.123 703.015c0-21.662 0-21.662 21.662-21.662 80.738 0 159.508 0 240.246 0 84.677 0 169.354 0 252.062 0 7.877 0 9.846 1.969 9.846 9.846 0 23.631 0 23.631-23.631 23.631-163.446 0-326.892 0-490.338 0-7.877-1.969-9.846-3.938-9.846-11.815zM183.138 500.185c0-68.923 0-135.877 0-204.8 0-7.877 1.969-9.846 7.877-7.877 7.877 1.969 17.723-3.938 21.662 1.969 3.938 3.938 1.969 13.785 1.969 21.662 0 131.938 0 261.908 0 393.846 0 7.877-1.969 11.815-9.846 9.846-5.908-1.969-15.754 1.969-19.692-1.969s-1.969-13.785-1.969-21.662c0-63.015 0-128 0-191.015zM198.892 943.262c-55.138 0-96.492-43.323-96.492-98.462 0-53.169 43.323-98.462 98.462-98.462 53.169 0 98.462 45.292 98.462 98.462-1.969 53.169-47.262 98.462-100.431 98.462zM395.815 827.077c-21.662 3.938-43.323 9.846-64.985 13.785-7.877-49.231-9.846-53.169-43.323-94.523 149.662 0 297.354 0 445.046 0-7.877 11.815-17.723 17.723-31.508 19.692-100.431 19.692-202.831 41.354-305.231 61.046zM919.631 844.8c0 55.138-43.323 98.462-98.462 98.462s-98.462-43.323-98.462-98.462c0-55.138 45.292-98.462 98.462-98.462 55.138 0 98.462 43.323 98.462 98.462zM888.123 647.877c-15.754 0-15.754 0-15.754-15.754 0-17.723 0-17.723 15.754-17.723s15.754 0 15.754 15.754c0 17.723 0 17.723-15.754 17.723zM962.954 580.923c-27.569 0-55.138 0-82.708 0-5.908 0-7.877-1.969-7.877-7.877 0-47.262 0-94.523 0-139.815 0-47.262 0-92.554 0-139.815 0-5.908 1.969-7.877 7.877-7.877 13.785 0 27.569 0 41.354 0 3.938 0 7.877 1.969 11.815 5.908 9.846 15.754 21.662 29.538 33.477 45.292 1.969 3.938 3.938 7.877 3.938 11.815 0 74.831 0 149.662 0 224.492 0 5.908-1.969 7.877-7.877 7.877z"></path>
<path d="M429.292 224.492c-5.908-1.969-11.815-3.938-17.723-7.877-7.877-3.938-9.846-1.969-11.815 5.908-3.938 11.815-9.846 23.631-13.785 33.477-3.938 7.877-9.846 17.723-7.877 21.662 3.938 5.908 13.785 7.877 21.662 11.815 5.908 1.969 7.877 1.969 9.846-3.938 7.877-17.723 15.754-35.446 21.662-53.169 0-1.969 1.969-1.969 1.969-5.908-1.969 0-1.969 0-3.938-1.969z"></path>
<path d="M447.015 175.262c-1.969 0-3.938-1.969-5.908-1.969-19.692-7.877-19.692-7.877-27.569 13.785 0 1.969-1.969 3.938 0 5.908 7.877 3.938 17.723 7.877 25.6 11.815 1.969 0 3.938-1.969 3.938-3.938 1.969-3.938 3.938-9.846 5.908-13.785 5.908-7.877 3.938-9.846-1.969-11.815z"></path>
<path d="M921.6 417.477c-15.754 0-15.754 0-15.754 15.754 0 17.723 0 17.723 15.754 17.723 17.723 0 17.723 0 17.723-17.723-1.969-15.754-1.969-15.754-17.723-15.754z"></path>
<path d="M919.631 384c17.723 0 17.723 0 17.723-17.723 0-15.754 0-15.754-15.754-15.754-17.723 0-17.723 0-17.723 17.723 0 15.754 0 15.754 15.754 15.754z"></path>
<path d="M198.892 795.569c-27.569 0-49.231 21.662-49.231 49.231s21.662 49.231 49.231 49.231c27.569 0 49.231-21.662 49.231-49.231s-21.662-49.231-49.231-49.231zM198.892 860.554c-9.846 0-15.754-5.908-15.754-15.754s5.908-15.754 15.754-15.754c9.846 0 15.754 5.908 15.754 15.754s-5.908 15.754-15.754 15.754z"></path>
<path d="M773.908 844.8c0 27.569 23.631 49.231 49.231 49.231 27.569 0 49.231-21.662 49.231-49.231s-21.662-49.231-49.231-49.231c-27.569-1.969-51.2 21.662-49.231 49.231zM823.138 829.046c9.846 0 15.754 7.877 15.754 15.754 0 9.846-7.877 15.754-15.754 15.754-9.846 0-15.754-5.908-15.754-15.754s5.908-15.754 15.754-15.754z"></path>
</svg>
