<?xml version="1.0" encoding="utf-8"?>
<!-- Generator: Adobe Illustrator 23.1.0, SVG Export Plug-In . SVG Version: 6.00 Build 0)  -->
<svg version="1.1" id="Слой_1" xmlns="http://www.w3.org/2000/svg" xmlns:xlink="http://www.w3.org/1999/xlink" x="0px" y="0px"
	 viewBox="0 0 52 52" style="enable-background:new 0 0 52 52;" xml:space="preserve">
<style type="text/css">
	.st0{fill:#DB0032;}
</style>
<g>
	<path class="st0" d="M50.4,16.3c-0.7-0.9-1.4-1.8-2-2.7c-0.3-0.4-0.6-0.6-1.1-0.6c-2.3,0-4.6,0-6.8,0c-0.8,0-1,0.3-1.1,1.1
		c0,0.6,0,1.1,0,1.7c0,0.5-0.1,0.6-0.6,0.6c-1.8,0-1.4,0.2-2.1-1.3c-1.3-3.1-2.6-6.2-4-9.2c0-0.1-0.1-0.2-0.1-0.3
		c-0.2-0.6-0.7-0.9-1.3-0.9c-1.2,0-2.4,0-3.6,0c-2.3,0-4.6,0-6.9,0c-0.8,0-1.3,0.3-1.6,1c-1.4,3.3-2.8,6.6-4.2,9.8
		c0,0.1-0.1,0.2-0.1,0.3c-0.1,0.5-0.5,0.6-0.9,0.6c-0.3,0-0.6,0-0.9,0c-0.4,0-0.6-0.2-0.6-0.6c0-0.6,0-1.1,0-1.7
		c0-0.8-0.3-1.1-1.1-1.1c-0.9,0-1.8,0-2.7,0c-0.8,0-1,0.2-1,1c0,0.2,0,0.4-0.1,0.5c0,0,0,0,0,0c0,0,0,0,0,0c0,0,0,0,0,0
		c-0.2,0-0.3-0.2-0.4-0.4c-0.5-1.2-1.1-2.4-1.5-3.6C5.3,9.4,4.1,8.7,3.1,8.8C2,9,1.1,10,1.1,11.2c0,5,0,10,0,15c0,1.4,1,2.4,2.4,2.4
		c1.3,0,2.3-1,2.3-2.3c0-0.4,0.1-0.8,0.3-1.1c0.4-0.8,0.8-1.5,1.2-2.3c0.1-0.1,0.1-0.3,0.3-0.3c0,0,0-0.1,0.1-0.1c0,0,0,0.1,0,0.1
		c0.1,0.1,0.1,0.3,0.1,0.4c0,0.1,0,0.3,0,0.4c0,4.2,0,8.4,0,12.7c0,0.6-0.2,0.9-0.7,1.2c-2.2,1.2-3.4,3.1-3.5,5.6
		c-0.1,1.4,0.3,2.7,1.1,3.8c1.3,1.9,3.1,2.9,5.4,2.9c2.9,0,5.2-1.7,6.1-4.2c0.2-0.6,0.5-1,1.2-1.1c5.7-1.1,11.4-2.3,17.1-3.4
		c1.1-0.2,1.1-0.2,0.9,0.9c-0.8,3.7,1.9,7.3,5.7,7.8c3.7,0.4,6.9-2.4,7.2-5.8c0.3-2.9-1-5-3.5-6.5c-0.5-0.3-0.7-0.6-0.7-1.2
		c0-0.3,0-0.7,0-1c0-0.4,0.2-0.5,0.5-0.5c0.5,0,1,0,1.6,0c1,0,1.2-0.2,1.2-1.2c0-0.5,0-1,0-1.6c0-0.4,0.2-0.6,0.6-0.6
		c0.5,0,1,0,1.6,0c0.4,0,0.8,0,1.1-0.4c0.1-0.1,0.1-0.1,0.2-0.1c0-4.7,0-9.3,0-14C50.7,16.7,50.6,16.5,50.4,16.3z M4.2,26
		c0,0.6-0.3,1.1-0.8,1c-0.5,0-0.8-0.4-0.8-1c0-4.9,0-9.7,0-14.6c0-0.7,0.3-1,0.9-1c0.5,0,0.8,0.4,0.8,1c0,2.4,0,4.9,0,7.3
		C4.2,21.2,4.2,23.6,4.2,26z M6.7,20.3c-0.2,0.5-0.4,0.9-0.7,1.3c0,0-0.1,0-0.1,0c0-0.6,0-1.2,0-1.8c0-0.2,0.1-0.3,0.3-0.3
		c0.3,0,0.6-0.1,0.7,0.1C7.1,19.8,6.8,20,6.7,20.3z M5.9,16.8c0-0.5,0-0.9,0-1.4c0,0,0.1,0,0.1,0c0.4,0.8,0.7,1.6,1.1,2.5
		C5.9,17.9,5.9,17.9,5.9,16.8z M41,15.1c0-0.4,0.1-0.6,0.6-0.6c1.1,0,1.1,0,1.1,1.1c0,3.3,0,6.5,0,9.8c0,3.5,0,6.9,0,10.4
		c0,0.3,0,0.5-0.4,0.5c-0.4,0-0.9,0.1-1.1-0.1C40.8,36,41,35.4,41,35C41,28.4,41,21.8,41,15.1z M38.4,17.9c0.8,0,0.8,0,0.8,0.9
		c0,0.8,0,0.8-0.8,0.8c-0.8,0-0.8,0-0.8-0.8C37.6,17.9,37.6,17.9,38.4,17.9z M35.7,25.3c-0.6,2.3-2.8,4.2-5.1,4.2
		c-3.1,0.1-6.2,0.1-9.2,0c-2.9-0.1-5.3-2.6-5.4-5.6c0-0.8,0-1.5,0-2.3c0-0.4,0.1-0.4,0.4-0.4c3.2,0,6.4,0,9.6,0c3.2,0,6.3,0,9.5,0
		c0.4,0,0.5,0.1,0.5,0.5C35.8,22.9,36,24.1,35.7,25.3z M18.3,11.8c0.7-1.7,1.5-3.4,2.2-5.2c0.1-0.3,0.3-0.4,0.6-0.4
		c3.3,0,6.5,0,9.8,0c0.3,0,0.4,0.1,0.5,0.3c1.3,3.1,2.7,6.2,4,9.4c0,0.1,0.1,0.1,0.1,0.3c-6.4,0-12.7,0-19.1,0
		C17,14.7,17.7,13.2,18.3,11.8z M16,17.9c0.2-0.2,0.7-0.1,1.1-0.1c6.1,0,12.2,0,18.2,0c0.5,0,0.6,0.1,0.5,0.6c0,1.1,0,1.1-1.1,1.1
		c-3,0-6,0-8.9,0c-3.2,0-6.3,0-9.5,0c-0.4,0-0.5-0.1-0.5-0.5C16,18.7,15.8,18.2,16,17.9z M13.5,17.9c0.1,0,0.1,0,0.2,0
		c0.4-0.1,0.6,0.1,0.5,0.5c0,0.1,0,0.2,0,0.3c0,0.8,0,0.8-0.8,0.8c-0.8,0-0.8,0-0.8-0.7C12.6,17.9,12.6,17.9,13.5,17.9z M12.6,21.7
		c0-0.4,0.1-0.5,0.5-0.5c1.1,0,1.2,0,1.1,1.1c0,1.3,0,2.7,0.5,3.9c1,2.9,3.9,4.9,6.9,4.9c2.8,0,5.7,0,8.5,0c4.2,0,7.2-3.3,7.4-6.8
		c0.1-0.9,0-1.8,0-2.7c0-0.3,0-0.5,0.4-0.5c1.2,0,1.2,0,1.2,1.2c0,3.3,0,6.6,0,9.9c0,0.4-0.1,0.5-0.5,0.5c-4.3,0-8.5,0-12.8,0
		c-4.3,0-8.5,0-12.8,0c-0.4,0-0.5-0.1-0.5-0.5C12.6,28.8,12.6,25.2,12.6,21.7z M12.6,35.7c0-1.1,0-1.1,1.1-1.1c4.1,0,8.1,0,12.2,0
		c4.3,0,8.6,0,12.8,0c0.4,0,0.5,0.1,0.5,0.5c0,1.2,0,1.2-1.2,1.2c-8.3,0-16.6,0-24.9,0C12.7,36.2,12.6,36.1,12.6,35.7z M9.3,25.4
		c0-3.5,0-6.9,0-10.4c0-0.4,0.1-0.5,0.4-0.4c0.4,0.1,0.9-0.2,1.1,0.1c0.2,0.2,0.1,0.7,0.1,1.1c0,6.7,0,13.3,0,20
		c0,0.4-0.1,0.6-0.5,0.5c-0.3-0.1-0.8,0.1-1-0.1c-0.2-0.2-0.1-0.7-0.1-1.1C9.3,31.9,9.3,28.6,9.3,25.4z M10.1,47.9
		c-2.8,0-4.9-2.2-4.9-5c0-2.7,2.2-5,5-5c2.7,0,5,2.3,5,5C15.1,45.6,12.8,47.9,10.1,47.9z M20.1,42c-1.1,0.2-2.2,0.5-3.3,0.7
		c-0.4-2.5-0.5-2.7-2.2-4.8c7.6,0,15.1,0,22.6,0c-0.4,0.6-0.9,0.9-1.6,1C30.5,39.9,25.3,41,20.1,42z M46.7,42.9c0,2.8-2.2,5-5,5
		c-2.8,0-5-2.2-5-5c0-2.8,2.3-5,5-5C44.5,37.9,46.7,40.1,46.7,42.9z M45.1,32.9c-0.8,0-0.8,0-0.8-0.8c0-0.9,0-0.9,0.8-0.9
		c0.8,0,0.8,0,0.8,0.8C45.9,32.9,45.9,32.9,45.1,32.9z M48.9,29.5c-1.4,0-2.8,0-4.2,0c-0.3,0-0.4-0.1-0.4-0.4c0-2.4,0-4.8,0-7.1
		c0-2.4,0-4.7,0-7.1c0-0.3,0.1-0.4,0.4-0.4c0.7,0,1.4,0,2.1,0c0.2,0,0.4,0.1,0.6,0.3c0.5,0.8,1.1,1.5,1.7,2.3
		c0.1,0.2,0.2,0.4,0.2,0.6c0,3.8,0,7.6,0,11.4C49.3,29.4,49.2,29.5,48.9,29.5z"/>
	<path class="st0" d="M21.8,11.4c-0.3-0.1-0.6-0.2-0.9-0.4c-0.4-0.2-0.5-0.1-0.6,0.3c-0.2,0.6-0.5,1.2-0.7,1.7
		c-0.2,0.4-0.5,0.9-0.4,1.1c0.2,0.3,0.7,0.4,1.1,0.6c0.3,0.1,0.4,0.1,0.5-0.2c0.4-0.9,0.8-1.8,1.1-2.7c0-0.1,0.1-0.1,0.1-0.3
		C21.9,11.5,21.9,11.5,21.8,11.4z"/>
	<path class="st0" d="M22.7,8.9c-0.1,0-0.2-0.1-0.3-0.1c-1-0.4-1-0.4-1.4,0.7c0,0.1-0.1,0.2,0,0.3c0.4,0.2,0.9,0.4,1.3,0.6
		c0.1,0,0.2-0.1,0.2-0.2c0.1-0.2,0.2-0.5,0.3-0.7C23.1,9.1,23,9,22.7,8.9z"/>
	<path class="st0" d="M46.8,21.2c-0.8,0-0.8,0-0.8,0.8c0,0.9,0,0.9,0.8,0.9c0.9,0,0.9,0,0.9-0.9C47.6,21.2,47.6,21.2,46.8,21.2z"/>
	<path class="st0" d="M46.7,19.5c0.9,0,0.9,0,0.9-0.9c0-0.8,0-0.8-0.8-0.8c-0.9,0-0.9,0-0.9,0.9C45.9,19.5,45.9,19.5,46.7,19.5z"/>
	<path class="st0" d="M10.1,40.4c-1.4,0-2.5,1.1-2.5,2.5c0,1.4,1.1,2.5,2.5,2.5c1.4,0,2.5-1.1,2.5-2.5
		C12.6,41.5,11.5,40.4,10.1,40.4z M10.1,43.7c-0.5,0-0.8-0.3-0.8-0.8c0-0.5,0.3-0.8,0.8-0.8c0.5,0,0.8,0.3,0.8,0.8
		C10.9,43.4,10.6,43.7,10.1,43.7z"/>
	<path class="st0" d="M39.3,42.9c0,1.4,1.2,2.5,2.5,2.5c1.4,0,2.5-1.1,2.5-2.5c0-1.4-1.1-2.5-2.5-2.5C40.4,40.3,39.2,41.5,39.3,42.9
		z M41.8,42.1c0.5,0,0.8,0.4,0.8,0.8c0,0.5-0.4,0.8-0.8,0.8c-0.5,0-0.8-0.3-0.8-0.8C41,42.4,41.3,42.1,41.8,42.1z"/>
</g>
</svg>
