<svg width="20" height="20" viewBox="0 0 20 20" fill="none" xmlns="http://www.w3.org/2000/svg">
<g clip-path="url(#clip0)">
<path d="M1.66672 7.99225H1.99997V12.5806L1.14334 14.2969C1.04889 14.4823 0.999756 14.6875 1.00006 14.8955V16.6588C1.00006 17.3952 1.59698 17.9922 2.33337 17.9922H8.99994C9.73633 17.9922 10.3334 17.3952 10.3334 16.6588V14.6588C10.3334 14.6147 10.3246 14.5711 10.3073 14.5305C10.2907 14.4902 10.2661 14.4537 10.2353 14.4229L8.43094 12.6186C8.24387 12.4303 7.9892 12.3247 7.72369 12.3256H6.99997C6.81595 12.3256 6.66672 12.1762 6.66672 11.9922V9.99222H6.99997C7.55234 9.99222 8.00003 9.54453 8.00003 8.99216V7.99225H11.6667C12.0889 7.99042 12.4646 7.72369 12.6053 7.32559H14.3333C15.2324 7.32498 16.0504 6.80557 16.4333 5.99213H18.9999C19.5511 5.98938 19.9973 5.54337 20 4.99222C20 4.43985 19.5523 3.99216 18.9999 3.99216H16.4333C16.0504 3.17871 15.2324 2.65945 14.3333 2.65884H12.6053C12.4646 2.26074 12.0889 1.99387 11.6667 1.99219H1.66672C0.746613 1.99326 0.00106812 2.7388 0 3.65891V6.32553C0.00106812 7.24548 0.746613 7.99103 1.66672 7.99225ZM8.99994 17.3256H2.33337C1.96518 17.3256 1.66672 17.027 1.66672 16.6588V14.8955C1.66656 14.792 1.69113 14.6898 1.73798 14.5975L2.42493 13.2219L3.90228 14.6992C4.08951 14.8875 4.34418 14.993 4.60968 14.9922H9.6666V16.6588C9.6666 17.027 9.36813 17.3256 8.99994 17.3256ZM6.99997 12.9922H7.72369C7.81219 12.9921 7.89703 13.0272 7.95959 13.0899L9.1954 14.3256H4.60968C4.52118 14.3256 4.43619 14.2905 4.37363 14.2279L2.66663 12.5209V7.99225H4.33334V10.6589C4.33441 11.5788 5.07996 12.3244 6.00006 12.3256H6.0614C6.20209 12.7237 6.57776 12.9904 6.99997 12.9922ZM6.00006 7.99225V11.6588C5.44769 11.6588 5 11.2111 5 10.6589V7.99225H6.00006ZM7.33337 8.99216C7.33337 9.17633 7.18414 9.32556 6.99997 9.32556H6.66672V7.99225H7.33337V8.99216ZM19.3333 4.99222C19.3335 5.08209 19.2967 5.16815 19.2313 5.2298C19.1702 5.2916 19.0869 5.32623 18.9999 5.32547H16.638C16.6556 5.2153 16.6652 5.10391 16.6667 4.99222C16.6652 4.88052 16.6556 4.76913 16.638 4.65881H18.9999C19.1841 4.65881 19.3333 4.80804 19.3333 4.99222ZM15.9033 4.43985C15.9679 4.61685 16.0005 4.80377 16.0001 4.99222C16.0004 5.18234 15.9671 5.37094 15.9019 5.54947C15.708 6.09955 15.2386 6.50681 14.6666 6.62125V3.36319C15.2402 3.47839 15.7103 3.88763 15.9033 4.43985ZM13.9999 6.65878H12.6666V3.3255H13.9999V6.65878ZM0.666656 3.65891C0.666656 3.10654 1.11435 2.65884 1.66672 2.65884H11.6667C11.8507 2.65884 12 2.80808 12 2.99225V3.3255H11.3333C11.1493 3.3255 11.0001 3.47473 11.0001 3.65891C11.0001 3.84293 11.1493 3.99216 11.3333 3.99216H12V4.65881H11.3333C11.1493 4.65881 11.0001 4.80804 11.0001 4.99222C11.0001 5.17624 11.1493 5.32547 11.3333 5.32547H12V5.99213H11.3333C11.1493 5.99213 11.0001 6.14136 11.0001 6.32553C11.0001 6.50955 11.1493 6.65878 11.3333 6.65878H12V6.99219C12 7.17621 11.8507 7.32559 11.6667 7.32559H1.66672C1.11435 7.32559 0.666656 6.87775 0.666656 6.32553V3.65891Z" fill="#BE0C26"/>
<path d="M2.00024 3.99234H3.33356C3.51773 3.99234 3.66696 3.84311 3.66696 3.65909C3.66696 3.47491 3.51773 3.32568 3.33356 3.32568H2.00024C1.81622 3.32568 1.66699 3.47491 1.66699 3.65909C1.66699 3.84311 1.81622 3.99234 2.00024 3.99234Z" fill="#BE0C26"/>
<path d="M2.00024 5.32535H3.33356C3.51773 5.32535 3.66696 5.17612 3.66696 4.9921C3.66696 4.80792 3.51773 4.65869 3.33356 4.65869H2.00024C1.81622 4.65869 1.66699 4.80792 1.66699 4.9921C1.66699 5.17612 1.81622 5.32535 2.00024 5.32535Z" fill="#BE0C26"/>
</g>
<defs>
<clipPath id="clip0">
<rect width="20" height="20" fill="white"/>
</clipPath>
</defs>
</svg>
