<!-- Generated by IcoMoon.io -->
<svg version="1.1" xmlns="http://www.w3.org/2000/svg" width="1024" height="1024" viewBox="0 0 1024 1024">
<title>concrete-mixer</title>
<g id="icomoon-ignore">
</g>
<path d="M85.336 409.203h17.062v234.924l-43.859 87.875c-4.836 9.492-7.352 19.999-7.336 30.648v90.281c0 37.704 30.562 68.27 68.265 68.27h341.328c37.703 0 68.273-30.566 68.273-68.27v-102.4c0-2.258-0.451-4.49-1.336-6.569-0.85-2.063-2.109-3.932-3.686-5.509l-92.383-92.38c-9.578-9.641-22.617-15.048-36.211-15.002h-37.054c-9.422 0-17.062-7.649-17.062-17.070v-102.399h17.062c28.281 0 51.203-22.922 51.203-51.203v-51.195h187.734c21.617-0.094 40.852-13.75 48.056-34.133h88.474c46.034-0.031 87.916-26.625 107.52-68.273h131.41c28.221-0.141 51.067-22.977 51.205-51.195 0-28.281-22.922-51.203-51.205-51.203h-131.41c-19.604-41.649-61.486-68.235-107.52-68.266h-88.474c-7.204-20.383-26.44-34.046-48.056-34.132h-511.999c-47.109 0.055-85.281 38.226-85.336 85.336v136.531c0.055 47.101 38.227 85.274 85.336 85.336zM460.797 887.071h-341.328c-18.851 0-34.132-15.288-34.132-34.14v-90.281c-0.008-5.299 1.25-10.532 3.649-15.258l35.172-70.431 75.64 75.638c9.586 9.641 22.625 15.043 36.219 15.002h258.914v85.33c0 18.852-15.282 34.14-34.133 34.14zM358.398 665.201h37.054c4.531-0.005 8.875 1.792 12.078 5.002l63.273 63.268h-234.789c-4.531 0-8.883-1.797-12.086-5.002l-87.398-87.398v-231.867h85.336v136.532c0.055 47.099 38.227 85.274 85.336 85.335h3.141c7.203 20.383 26.438 34.038 48.055 34.13zM307.203 409.203v187.727c-28.281 0-51.203-22.922-51.203-51.195v-136.532h51.203zM375.469 460.399c0 9.43-7.641 17.070-17.070 17.070h-17.062v-68.265h34.132v51.195zM989.865 255.602c0.010 4.601-1.874 9.008-5.222 12.164-3.128 3.164-7.393 4.937-11.848 4.898h-120.929c0.901-5.641 1.393-11.344 1.469-17.062-0.077-5.719-0.568-11.422-1.469-17.071h120.929c9.431 0 17.070 7.641 17.070 17.071zM814.249 227.32c3.308 9.062 4.977 18.633 4.956 28.281 0.015 9.734-1.69 19.39-5.028 28.531-9.928 28.164-33.961 49.016-63.247 54.875v-166.813c29.368 5.898 53.437 26.851 63.319 55.125zM716.795 340.93h-68.265v-170.664h68.265v170.664zM34.133 187.336c0-28.281 22.922-51.204 51.203-51.204h511.999c9.421 0 17.065 7.641 17.065 17.071v17.062h-34.135c-9.421 0-17.060 7.641-17.060 17.071 0 9.422 7.639 17.062 17.060 17.062h34.135v34.132h-34.135c-9.421 0-17.060 7.641-17.060 17.071 0 9.422 7.639 17.062 17.060 17.062h34.135v34.133h-34.135c-9.421 0-17.060 7.641-17.060 17.070 0 9.422 7.639 17.062 17.060 17.062h34.135v17.071c0 9.422-7.644 17.070-17.065 17.070h-511.999c-28.281 0-51.203-22.929-51.203-51.203v-136.531z"></path>
<path d="M102.412 204.408h68.266c9.43 0 17.070-7.641 17.070-17.062 0-9.43-7.641-17.071-17.070-17.071h-68.266c-9.422 0-17.062 7.641-17.062 17.071 0 9.422 7.641 17.062 17.062 17.062z"></path>
<path d="M102.412 272.658h68.266c9.43 0 17.070-7.641 17.070-17.062 0-9.43-7.641-17.071-17.070-17.071h-68.266c-9.422 0-17.062 7.641-17.062 17.071 0 9.422 7.641 17.062 17.062 17.062z"></path>
</svg>
