<svg width="20" height="20" viewBox="0 0 20 20" fill="none" xmlns="http://www.w3.org/2000/svg">
<path d="M19.6875 4.6875H18.4375V2.8125H9.6875V1.5625H7.1875V2.8125H6.5625V1.5625H4.0625V2.8125H3.28125L2.1875 4.27094V4.6875H0.9375V6.5625H2.1875V9.18188L0.3125 10.1194V15.3125H2.1875V15.9375H3.45594C3.61188 17.3416 4.80469 18.4375 6.25 18.4375C7.69531 18.4375 8.88813 17.3416 9.04406 15.9375H11.5809C11.7369 17.3416 12.9297 18.4375 14.375 18.4375C15.8203 18.4375 17.0131 17.3416 17.1691 15.9375H18.4375V6.5625H19.6875V4.6875ZM7.8125 2.1875H9.0625V2.8125H7.8125V2.1875ZM4.6875 2.1875H5.9375V2.8125H4.6875V2.1875ZM1.5625 5.9375V5.3125H2.1875V5.9375H1.5625ZM0.9375 14.6875V10.5056L2.1875 9.88062V14.6875H0.9375ZM6.25 17.8125C5.15031 17.8125 4.24 16.9959 4.0875 15.9375H4.71906C4.86438 16.6497 5.49531 17.1875 6.25 17.1875C7.00469 17.1875 7.63562 16.6497 7.78094 15.9375H8.4125C8.26 16.9959 7.34969 17.8125 6.25 17.8125ZM5.37 15.9375H7.12969C7.00031 16.3003 6.65656 16.5625 6.24969 16.5625C5.84281 16.5625 5.49937 16.3003 5.37 15.9375ZM14.375 17.8125C13.2753 17.8125 12.365 16.9959 12.2125 15.9375H12.8441C12.9894 16.6497 13.6203 17.1875 14.375 17.1875C15.1297 17.1875 15.7606 16.6497 15.9059 15.9375H16.5375C16.385 16.9959 15.4747 17.8125 14.375 17.8125ZM13.495 15.9375H15.2547C15.1253 16.3003 14.7816 16.5625 14.3747 16.5625C13.9678 16.5625 13.6244 16.3003 13.495 15.9375ZM17.8125 15.3125H2.8125V4.47906L3.59375 3.4375H17.8125V15.3125ZM19.0625 5.9375H18.4375V5.3125H19.0625V5.9375Z" fill="#BE0C26"/>
<path d="M17.1875 4.0625H8.4375V9.6875H17.1875V4.0625ZM16.5625 6.5625H13.4375V4.6875H16.5625V6.5625ZM9.0625 9.0625V4.6875H12.8125V7.1875H16.5625V9.0625H9.0625Z" fill="#BE0C26"/>
<path d="M10.9375 5.3125C10.2481 5.3125 9.6875 5.87312 9.6875 6.5625C9.6875 7.25188 10.2481 7.8125 10.9375 7.8125C11.6269 7.8125 12.1875 7.25188 12.1875 6.5625C12.1875 5.87312 11.6269 5.3125 10.9375 5.3125ZM10.9375 7.1875C10.5928 7.1875 10.3125 6.90719 10.3125 6.5625C10.3125 6.21781 10.5928 5.9375 10.9375 5.9375C11.2822 5.9375 11.5625 6.21781 11.5625 6.5625C11.5625 6.90719 11.2822 7.1875 10.9375 7.1875Z" fill="#BE0C26"/>
<path d="M14.6875 5.3125H14.0625V5.9375H14.6875V5.3125Z" fill="#BE0C26"/>
<path d="M15.9375 5.3125H15.3125V5.9375H15.9375V5.3125Z" fill="#BE0C26"/>
<path d="M15.9375 7.8125H15.3125V8.4375H15.9375V7.8125Z" fill="#BE0C26"/>
<path d="M14.6875 7.8125H14.0625V8.4375H14.6875V7.8125Z" fill="#BE0C26"/>
<path d="M13.4375 7.8125H12.8125V8.4375H13.4375V7.8125Z" fill="#BE0C26"/>
<path d="M4.84008 8.86625C4.77695 9.05594 4.80914 9.26625 4.92602 9.42844C5.04352 9.59062 5.23258 9.6875 5.43258 9.6875C5.67039 9.6875 5.88414 9.55531 5.9907 9.3425L7.6932 5.9375H6.37133L6.99633 4.0625H4.76758L3.64258 7.8125H5.19133L4.84008 8.86625ZM4.48258 7.1875L5.23258 4.6875H6.12883L5.50383 6.5625H6.68227L5.4332 9.06375L6.05883 7.1875H4.48258Z" fill="#BE0C26"/>
<path d="M11.875 10.3125H4.375C3.85812 10.3125 3.4375 10.7331 3.4375 11.25V13.75C3.4375 14.2669 3.85812 14.6875 4.375 14.6875H11.875C12.3919 14.6875 12.8125 14.2669 12.8125 13.75V11.25C12.8125 10.7331 12.3919 10.3125 11.875 10.3125ZM11.875 14.0625H4.375C4.2025 14.0625 4.0625 13.9222 4.0625 13.75V11.25C4.0625 11.0778 4.2025 10.9375 4.375 10.9375H11.875C12.0475 10.9375 12.1875 11.0778 12.1875 11.25V11.5625H11.25C10.7331 11.5625 10.3125 11.9831 10.3125 12.5C10.3125 13.0169 10.7331 13.4375 11.25 13.4375H12.1875V13.75C12.1875 13.9222 12.0475 14.0625 11.875 14.0625ZM12.1875 12.1875V12.8125H11.25C11.0775 12.8125 10.9375 12.6722 10.9375 12.5C10.9375 12.3278 11.0775 12.1875 11.25 12.1875H12.1875Z" fill="#BE0C26"/>
<path d="M14.0625 14.6875H17.1875V10.3125H14.0625V14.6875ZM14.6875 10.9375H16.5625V14.0625H14.6875V10.9375Z" fill="#BE0C26"/>
</svg>
