<!-- Generated by IcoMoon.io -->
<svg version="1.1" xmlns="http://www.w3.org/2000/svg" width="1024" height="1024" viewBox="0 0 1024 1024">
<title>concrete-mixer</title>
<g id="icomoon-ignore">
</g>
<path d="M1008 240h-64v-96h-448v-64h-128v64h-32v-64h-128v64h-40l-56 74.672v21.328h-64v96h64v134.112l-96 48.001v265.887h96v32h64.944c7.984 71.89 69.056 128 143.056 128s135.072-56.11 143.056-128h129.886c7.987 71.89 69.059 128 143.058 128s135.071-56.11 143.058-128h64.942v-480h64v-96zM400 112h64v32h-64v-32zM240 112h64v32h-64v-32zM80 304v-32h32v32h-32zM48 752v-214.113l64-31.999v246.112h-64zM320 912c-56.304 0-102.912-41.81-110.72-96h32.336c7.44 36.465 39.744 64 78.384 64s70.944-27.535 78.384-64h32.336c-7.808 54.19-54.416 96-110.72 96zM274.944 816h90.096c-6.624 18.575-24.224 32-45.056 32s-38.416-13.425-45.040-32zM736 912c-56.305 0-102.912-41.81-110.72-96h32.338c7.439 36.465 39.741 64 78.382 64s70.943-27.535 78.382-64h32.338c-7.808 54.19-54.415 96-110.72 96zM690.944 816h90.097c-6.625 18.575-24.223 32-45.056 32s-38.415-13.425-45.041-32zM912 784h-768v-554.672l40-53.328h728v608zM976 304h-32v-32h32v32z"></path>
<path d="M880 208h-448v288h448v-288zM848 336h-160v-96h160v96zM464 464v-224h192v128h192v96h-384z"></path>
<path d="M560 272c-35.297 0-64 28.704-64 64s28.703 64 64 64c35.297 0 64-28.704 64-64s-28.703-64-64-64zM560 368c-17.649 0-32-14.352-32-32s14.351-32 32-32c17.649 0 32 14.352 32 32s-14.351 32-32 32z"></path>
<path d="M752 272h-32v32h32v-32z"></path>
<path d="M816 272h-32v32h32v-32z"></path>
<path d="M816 400h-32v32h32v-32z"></path>
<path d="M752 400h-32v32h32v-32z"></path>
<path d="M688 400h-32v32h32v-32z"></path>
<path d="M247.812 453.952c-3.232 9.712-1.584 20.48 4.4 28.784 6.016 8.304 15.696 13.264 25.936 13.264 12.176 0 23.12-6.768 28.576-17.664l87.168-174.336h-67.68l32-96h-114.112l-57.6 192h79.296l-17.984 53.952zM229.508 368l38.4-128h45.888l-32 96h60.336l-63.952 128.064 32.032-96.064h-80.704z"></path>
<path d="M608 528h-384c-26.464 0-48 21.535-48 48v128c0 26.465 21.536 48 48 48h384c26.465 0 48-21.535 48-48v-128c0-26.465-21.535-48-48-48zM608 720h-384c-8.832 0-16-7.183-16-16v-128c0-8.817 7.168-16 16-16h384c8.832 0 16 7.183 16 16v16h-48c-26.465 0-48 21.535-48 48s21.535 48 48 48h48v16c0 8.817-7.168 16-16 16zM624 624v32h-48c-8.832 0-16-7.183-16-16s7.168-16 16-16h48z"></path>
<path d="M720 752h160v-224h-160v224zM752 560h96v160h-96v-160z"></path>
</svg>
