<svg width="20" height="20" viewBox="0 0 20 20" fill="none" xmlns="http://www.w3.org/2000/svg">
<g clip-path="url(#clip0)">
<path d="M17.6629 14.8512L16.9675 12.5329C16.8023 11.9829 16.3055 11.6132 15.7314 11.6132H15.3608L14.1043 9.10064C13.8843 8.66104 13.442 8.38745 12.9501 8.38745H11.1169L7.59958 0.650207C7.4205 0.255335 7.02468 0.000488281 6.59153 0.000488281C5.98056 0.000488281 5.48378 0.497267 5.48378 1.12084C5.48378 1.17754 5.49308 1.2344 5.50221 1.29079H2.40672L2.1158 0.650207C1.93671 0.255335 1.5409 0.000488281 1.10775 0.000488281C0.496779 0.000488281 0 0.497267 0 1.12084C0 1.27787 0.0341791 1.43633 0.0993873 1.57919L3.48737 9.0326H2.25803C1.72455 9.0326 1.2903 9.46685 1.2903 10.0003V15.4841C1.2903 16.0176 1.72455 16.4518 2.25803 16.4518H2.59698C2.58643 16.558 2.5806 16.6654 2.5806 16.7744C2.5806 18.5531 4.02763 20.0002 5.80636 20.0002C7.24802 20.0002 8.47123 19.0493 8.88343 17.7421H14.861C15.0207 19.0131 16.1059 20.0002 17.4194 20.0002C18.8423 20.0002 20 18.8425 20 17.4196C19.9997 16.079 18.9716 14.9747 17.6629 14.8512ZM16.3494 12.718L16.9968 14.8768C16.3578 14.9824 15.7972 15.3222 15.4079 15.8067H14.1933V14.1938H13.5482V15.8067H12.903V14.1938H12.2579V15.8067H11.6127V14.1938H10.9676V15.8067H10.3224V14.1938H9.67726V15.8067H8.88343C8.58337 14.8547 7.85144 14.0954 6.92025 13.7509L7.44916 12.628C7.55501 12.4036 7.78434 12.2584 8.03273 12.2584H15.7311C16.0185 12.2584 16.2669 12.4433 16.3494 12.718ZM3.43319 3.54882H6.47829L8.82625 8.71522C8.55927 8.95164 8.38696 9.29328 8.38696 9.67775V10.157L8.20079 9.66058C8.06013 9.28493 7.69598 9.0326 7.29465 9.0326H5.92606L3.43319 3.54882ZM12.903 11.6132V10.3229H13.5482V11.6132H12.903ZM12.2579 11.6132H11.6127V10.3229H12.2579V11.6132ZM14.1933 11.6132V10.7216L14.6391 11.6132H14.1933ZM13.5272 9.38904L13.6713 9.67775H11.6127C11.2569 9.67775 10.9676 9.96709 10.9676 10.3229V11.6132H9.03211V9.67775C9.03211 9.32194 9.32145 9.0326 9.67726 9.0326H12.9501C13.196 9.0326 13.4173 9.16932 13.5272 9.38904ZM9.67726 8.38745C9.58213 8.38745 9.48983 8.39942 9.40052 8.41911L7.18691 3.54882H8.20851L10.4079 8.38745H9.67726ZM6.12893 1.10824C6.12893 0.853392 6.33669 0.645639 6.59153 0.645639C6.77251 0.645639 6.93726 0.752114 7.01239 0.916867L7.18219 1.29079H6.16311C6.14185 1.23661 6.12893 1.17786 6.12893 1.10824ZM7.47531 1.93594L7.91538 2.90367H3.13991L2.70031 1.93594H7.47531ZM0.645151 1.10824C0.645151 0.853392 0.852903 0.645639 1.10775 0.645639C1.28873 0.645639 1.45348 0.752114 1.52861 0.916867L6.08798 10.9471C6.11476 11.0065 6.12893 11.0723 6.12893 11.1506C6.12893 11.4055 5.92118 11.6132 5.66633 11.6132C5.48536 11.6132 5.3206 11.5067 5.24547 11.342L0.686418 1.31174C0.659327 1.25236 0.645151 1.18668 0.645151 1.10824ZM2.25803 15.8067C2.08004 15.8067 1.93545 15.6623 1.93545 15.4841V10.0003C1.93545 9.82234 2.08004 9.67775 2.25803 9.67775H3.78065L4.65829 11.6086C4.83737 12.0035 5.23319 12.2584 5.66633 12.2584C6.27731 12.2584 6.77408 11.7616 6.77408 11.138C6.77408 10.981 6.73991 10.8222 6.6747 10.6797L6.21919 9.67775H7.29465C7.42821 9.67775 7.54949 9.76202 7.59659 9.88708L8.2441 11.6132H8.03304C7.53595 11.6132 7.0776 11.9035 6.86607 12.3532L6.28376 13.588C6.12736 13.5647 5.96891 13.5487 5.80636 13.5487C4.36469 13.5487 3.14149 14.4997 2.72929 15.8067H2.25803ZM5.80636 19.355C4.38343 19.355 3.22575 18.1973 3.22575 16.7744C3.22575 15.3515 4.38343 14.1938 5.80636 14.1938C7.22928 14.1938 8.38696 15.3515 8.38696 16.7744C8.38696 18.1973 7.22928 19.355 5.80636 19.355ZM9.01573 16.4518H15.0284C14.9459 16.6553 14.8892 16.8719 14.8607 17.097H9.01573C9.02629 16.9908 9.03211 16.8834 9.03211 16.7744C9.03211 16.6654 9.02629 16.558 9.01573 16.4518ZM17.4191 19.355C16.3516 19.355 15.4836 18.487 15.4836 17.4196C15.4836 16.3521 16.3516 15.4841 17.4191 15.4841C18.4865 15.4841 19.3545 16.3521 19.3545 17.4196C19.3545 18.487 18.4865 19.355 17.4191 19.355Z" fill="#BE0C26"/>
<path d="M17.4192 16.1289C16.7076 16.1289 16.1289 16.7076 16.1289 17.4192C16.1289 18.1308 16.7076 18.7095 17.4192 18.7095C18.1308 18.7095 18.7095 18.1308 18.7095 17.4192C18.7095 16.7076 18.1308 16.1289 17.4192 16.1289ZM17.4192 18.0643C17.0634 18.0643 16.7741 17.775 16.7741 17.4192C16.7741 17.0634 17.0634 16.7741 17.4192 16.7741C17.775 16.7741 18.0644 17.0634 18.0644 17.4192C18.0644 17.775 17.775 18.0643 17.4192 18.0643Z" fill="#BE0C26"/>
<path d="M5.80606 14.8389C5.42646 14.8389 5.05774 14.9505 4.73926 15.1608L5.0957 15.6989C5.30802 15.5582 5.55341 15.484 5.80606 15.484C6.51768 15.484 7.09636 16.0627 7.09636 16.7743C7.09636 17.027 7.02217 17.2724 6.88152 17.4844L7.41956 17.8408C7.62984 17.5226 7.74151 17.1541 7.74151 16.7743C7.74151 15.7069 6.87348 14.8389 5.80606 14.8389Z" fill="#BE0C26"/>
<path d="M5.80655 18.0648C5.09493 18.0648 4.51624 17.4861 4.51624 16.7745C4.51624 16.5218 4.59043 16.2764 4.73108 16.0644L4.19304 15.708C3.98277 16.0262 3.87109 16.3949 3.87109 16.7745C3.87109 17.8419 4.73912 18.7099 5.80655 18.7099C6.18614 18.7099 6.55486 18.5983 6.87334 18.388L6.51691 17.8499C6.30458 17.9906 6.05919 18.0648 5.80655 18.0648Z" fill="#BE0C26"/>
</g>
<defs>
<clipPath id="clip0">
<rect width="20" height="20" fill="white"/>
</clipPath>
</defs>
</svg>
