<!-- Generated by IcoMoon.io -->
<svg version="1.1" xmlns="http://www.w3.org/2000/svg" width="32" height="32" viewBox="0 0 32 32">
<title>lawnmower</title>
<path d="M28.261 23.762l-1.113-3.709c-0.264-0.88-1.059-1.472-1.978-1.472h-0.593l-2.010-4.020c-0.352-0.703-1.060-1.141-1.847-1.141h-2.933l-5.628-12.38c-0.287-0.632-0.92-1.040-1.613-1.040-0.978 0-1.772 0.795-1.772 1.793 0 0.091 0.015 0.182 0.030 0.272h-4.953l-0.465-1.025c-0.287-0.632-0.92-1.040-1.613-1.040-0.978 0-1.772 0.795-1.772 1.793 0 0.251 0.055 0.505 0.159 0.733l5.421 11.925h-1.967c-0.854 0-1.548 0.695-1.548 1.548v8.774c0 0.854 0.695 1.548 1.548 1.548h0.542c-0.017 0.17-0.026 0.342-0.026 0.516 0 2.846 2.315 5.161 5.161 5.161 2.307 0 4.264-1.521 4.923-3.613h9.564c0.256 2.034 1.992 3.613 4.093 3.613 2.277 0 4.129-1.852 4.129-4.129-0-2.145-1.645-3.912-3.739-4.109zM26.159 20.349l1.036 3.454c-1.022 0.169-1.919 0.713-2.542 1.488h-1.943v-2.581h-1.032v2.581h-1.032v-2.581h-1.032v2.581h-1.032v-2.581h-1.032v2.581h-1.032v-2.581h-1.032v2.581h-1.27c-0.48-1.523-1.651-2.738-3.141-3.289l0.846-1.797c0.169-0.359 0.536-0.591 0.934-0.591h12.317c0.46 0 0.857 0.296 0.989 0.735zM5.493 5.678h4.872l3.757 8.266c-0.427 0.378-0.703 0.925-0.703 1.54v0.767l-0.298-0.794c-0.225-0.601-0.808-1.005-1.45-1.005h-2.19l-3.989-8.774zM20.645 18.581v-2.064h1.032v2.064h-1.032zM19.613 18.581h-1.032v-2.064h1.032v2.064zM22.709 18.581v-1.427l0.713 1.427h-0.713zM21.644 15.022l0.231 0.462h-3.294c-0.569 0-1.032 0.463-1.032 1.032v2.064h-3.097v-3.097c0-0.569 0.463-1.032 1.032-1.032h5.237c0.393 0 0.748 0.219 0.923 0.57zM15.484 13.42c-0.152 0-0.3 0.019-0.443 0.051l-3.542-7.792h1.635l3.519 7.742h-1.169zM9.806 1.773c0-0.408 0.332-0.74 0.74-0.74 0.29 0 0.553 0.17 0.673 0.434l0.272 0.598h-1.631c-0.034-0.087-0.055-0.181-0.055-0.292zM11.96 3.098l0.704 1.548h-7.641l-0.703-1.548h7.64zM1.032 1.773c0-0.408 0.332-0.74 0.74-0.74 0.29 0 0.553 0.17 0.673 0.434l7.295 16.048c0.043 0.095 0.066 0.2 0.066 0.326 0 0.408-0.332 0.74-0.74 0.74-0.29 0-0.553-0.17-0.673-0.434l-7.294-16.048c-0.043-0.095-0.066-0.2-0.066-0.326zM3.613 25.291c-0.285 0-0.516-0.231-0.516-0.516v-8.774c0-0.285 0.231-0.516 0.516-0.516h2.436l1.404 3.089c0.287 0.632 0.92 1.040 1.613 1.040 0.978 0 1.772-0.795 1.772-1.793 0-0.251-0.055-0.505-0.159-0.733l-0.729-1.603h1.721c0.214 0 0.408 0.135 0.483 0.335l1.036 2.762h-0.338c-0.795 0-1.529 0.464-1.867 1.184l-0.932 1.976c-0.25-0.037-0.504-0.063-0.764-0.063-2.307 0-4.264 1.522-4.923 3.613h-0.754zM9.29 30.968c-2.277 0-4.129-1.852-4.129-4.129s1.852-4.129 4.129-4.129c2.277 0 4.129 1.852 4.129 4.129s-1.852 4.129-4.129 4.129zM14.425 26.323h9.62c-0.132 0.326-0.223 0.672-0.268 1.032h-9.352c0.017-0.17 0.026-0.342 0.026-0.516s-0.009-0.346-0.026-0.516zM27.871 30.968c-1.708 0-3.097-1.389-3.097-3.097s1.389-3.097 3.097-3.097c1.708 0 3.097 1.389 3.097 3.097s-1.389 3.097-3.097 3.097z"></path>
<path d="M27.871 25.806c-1.139 0-2.064 0.926-2.064 2.064s0.926 2.064 2.064 2.064c1.139 0 2.064-0.926 2.064-2.064s-0.926-2.064-2.064-2.064zM27.871 28.903c-0.569 0-1.032-0.463-1.032-1.032s0.463-1.032 1.032-1.032c0.569 0 1.032 0.463 1.032 1.032s-0.463 1.032-1.032 1.032z"></path>
<path d="M9.29 23.742c-0.607 0-1.197 0.179-1.707 0.515l0.57 0.861c0.34-0.225 0.732-0.344 1.137-0.344 1.139 0 2.064 0.926 2.064 2.064 0 0.404-0.119 0.797-0.344 1.136l0.861 0.57c0.336-0.509 0.515-1.099 0.515-1.706 0-1.708-1.389-3.097-3.097-3.097z"></path>
<path d="M9.29 28.904c-1.139 0-2.064-0.926-2.064-2.064 0-0.404 0.119-0.797 0.344-1.136l-0.861-0.57c-0.336 0.509-0.515 1.099-0.515 1.706 0 1.708 1.389 3.097 3.097 3.097 0.607 0 1.197-0.179 1.707-0.515l-0.57-0.861c-0.34 0.225-0.732 0.344-1.137 0.344z"></path>
</svg>
