<svg width="20" height="20" viewBox="0 0 20 20" fill="none" xmlns="http://www.w3.org/2000/svg">
<path d="M18.125 4.375H16.5625V1.5625C16.5625 1.31386 16.4637 1.0754 16.2879 0.899587C16.1121 0.723772 15.8736 0.625 15.625 0.625H4.375C4.12636 0.625 3.8879 0.723772 3.71209 0.899587C3.53627 1.0754 3.4375 1.31386 3.4375 1.5625V4.375H1.875C1.79212 4.375 1.71263 4.40792 1.65403 4.46653C1.59542 4.52513 1.5625 4.60462 1.5625 4.6875V9.6875C1.5625 9.77038 1.59542 9.84987 1.65403 9.90847C1.71263 9.96708 1.79212 10 1.875 10H3.4375V12.8125C3.4375 14.553 4.1289 16.2222 5.35961 17.4529C6.59032 18.6836 8.25952 19.375 10 19.375C11.7405 19.375 13.4097 18.6836 14.6404 17.4529C15.8711 16.2222 16.5625 14.553 16.5625 12.8125V10H18.125C18.2079 10 18.2874 9.96708 18.346 9.90847C18.4046 9.84987 18.4375 9.77038 18.4375 9.6875V4.6875C18.4375 4.60462 18.4046 4.52513 18.346 4.46653C18.2874 4.40792 18.2079 4.375 18.125 4.375ZM3.4375 9.375H2.1875V5H3.4375V9.375ZM15.9375 12.8125C15.9375 14.3872 15.3119 15.8974 14.1984 17.0109C13.0849 18.1244 11.5747 18.75 10 18.75C8.42528 18.75 6.91505 18.1244 5.80155 17.0109C4.68806 15.8974 4.0625 14.3872 4.0625 12.8125V3.125H15.9375V12.8125ZM15.9375 2.5H4.0625V1.5625C4.0625 1.47962 4.09542 1.40013 4.15403 1.34153C4.21263 1.28292 4.29212 1.25 4.375 1.25H15.625C15.7079 1.25 15.7874 1.28292 15.846 1.34153C15.9046 1.40013 15.9375 1.47962 15.9375 1.5625V2.5ZM17.8125 9.375H16.5625V5H17.8125V9.375Z" fill="#BE0C26"/>
<path d="M15.3125 3.75H4.6875V10H15.3125V3.75ZM14.6875 5.80813L13.2166 7.27906L13.6584 7.72094L14.6875 6.69187V9.375H5.79906L9.27437 6.16687L8.85063 5.70813L5.3125 8.97375V8.255L6.78344 6.78406L6.34156 6.34219L5.3125 7.37063V4.375H14.2009L10.7256 7.58313L11.1494 8.04187L14.6875 4.77625V5.80813Z" fill="#BE0C26"/>
<path d="M6.875 10.625H4.6875V11.25H6.875V10.625Z" fill="#BE0C26"/>
<path d="M8.125 10.625H7.5V11.25H8.125V10.625Z" fill="#BE0C26"/>
<path d="M9.97363 17.4999L10.0258 18.1249C10.0655 18.1218 14.0052 17.7527 14.9889 14.1458L14.3858 13.9814C13.5186 17.1599 10.1177 17.4886 9.97363 17.4999Z" fill="#BE0C26"/>
<path d="M15.3125 10.625H14.6875V11.25H15.3125V10.625Z" fill="#BE0C26"/>
</svg>
