<!-- Generated by IcoMoon.io -->
<svg version="1.1" xmlns="http://www.w3.org/2000/svg" width="1024" height="1024" viewBox="0 0 1024 1024">
<title>concrete-mixer</title>
<g id="icomoon-ignore">
</g>
<path d="M928 224h-80v-144c0-12.73-5.059-24.94-14.060-33.941s-21.212-14.059-33.94-14.059h-576c-12.73 0-24.94 5.057-33.941 14.059s-14.059 21.211-14.059 33.941v144h-80c-4.243 0-8.313 1.686-11.314 4.686s-4.686 7.070-4.686 11.314v256c0 4.243 1.686 8.313 4.686 11.314s7.070 4.686 11.314 4.686h80v144c0 89.114 35.4 174.577 98.412 237.588s148.475 98.412 237.588 98.412c89.114 0 174.577-35.4 237.588-98.412s98.412-148.475 98.412-237.588v-144h80c4.244 0 8.315-1.686 11.315-4.686s4.685-7.070 4.685-11.314v-256c0-4.243-1.684-8.313-4.685-11.314s-7.071-4.686-11.315-4.686zM176 480h-64v-224h64v224zM816 656c0 80.625-32.031 157.947-89.042 214.958s-134.333 89.042-214.958 89.042c-80.626 0-157.949-32.031-214.961-89.042s-89.039-134.333-89.039-214.958v-496h608v496zM816 128h-608v-48c0-4.243 1.686-8.313 4.686-11.314s7.070-4.686 11.314-4.686h576c4.244 0 8.315 1.686 11.315 4.686s4.685 7.070 4.685 11.314v48zM912 480h-64v-224h64v224z"></path>
<path d="M784 192h-544v320h544v-320zM752 297.376l-75.31 75.312 22.62 22.624 52.69-52.688v137.376h-455.088l177.936-164.256-21.695-23.487-181.152 167.2v-36.8l75.312-75.312-22.624-22.624-52.688 52.656v-153.376h455.086l-177.935 164.256 21.699 23.487 181.151-167.2v52.832z"></path>
<path d="M352 544h-112v32h112v-32z"></path>
<path d="M416 544h-32v32h32v-32z"></path>
<path d="M510.65 895.995l2.671 32c2.033-0.159 203.745-19.057 254.111-203.73l-30.879-8.417c-44.401 162.739-218.527 179.569-225.903 180.147z"></path>
<path d="M784 544h-32v32h32v-32z"></path>
</svg>
