<?xml version="1.0" standalone="no"?>
<!DOCTYPE svg PUBLIC "-//W3C//DTD SVG 20010904//EN"
 "http://www.w3.org/TR/2001/REC-SVG-20010904/DTD/svg10.dtd">
<svg version="1.0" xmlns="http://www.w3.org/2000/svg"
 width="213.000000pt" height="213.000000pt" viewBox="0 0 213.000000 213.000000"
 preserveAspectRatio="xMidYMid meet">

<g transform="translate(0.000000,213.000000) scale(0.100000,-0.100000)"
fill="#000000" stroke="none">
<path d="M1008 1620 l-22 -30 -152 0 c-148 0 -153 -1 -182 -25 -23 -19 -41
-25 -80 -25 -40 0 -60 -7 -101 -35 -49 -32 -57 -34 -149 -37 l-97 -3 0 -50 0
-50 100 -3 c54 -1 102 -6 105 -10 3 -4 24 -20 47 -35 31 -19 55 -27 88 -27 36
0 54 -6 84 -30 l38 -31 148 2 149 1 25 -31 c15 -18 35 -31 49 -31 26 0 26 4 5
-71 -16 -59 -16 -62 2 -75 10 -8 31 -14 45 -14 15 0 35 -9 46 -21 10 -12 34
-29 53 -38 41 -19 95 -118 112 -204 l11 -55 -40 -39 c-32 -30 -42 -48 -47 -85
-10 -64 0 -95 40 -135 l33 -33 220 0 c217 0 219 0 245 24 45 42 49 151 8 207
-12 16 -21 43 -21 63 0 124 -43 295 -100 404 l-39 72 107 0 c105 0 108 1 144
30 56 47 88 120 88 203 0 97 -17 144 -70 199 l-46 48 -412 0 -411 0 -23 -30z
m837 -60 c38 -35 55 -80 55 -145 0 -61 -19 -117 -52 -152 -21 -22 -28 -23
-185 -23 l-163 0 -6 -27 c-5 -18 -3 -28 6 -31 7 -3 30 -20 50 -38 77 -70 138
-249 146 -428 4 -90 6 -101 29 -122 25 -23 33 -71 19 -108 -9 -24 -395 -24
-418 0 -20 20 -20 73 0 102 14 20 23 22 123 22 70 0 111 4 119 12 16 16 16
130 0 146 -7 7 -44 12 -95 12 -49 0 -83 4 -83 10 0 6 31 10 74 10 77 0 113 16
102 46 -3 7 -10 32 -16 56 -18 67 -20 68 -140 68 -99 0 -108 2 -113 20 -3 13
-14 20 -29 20 -52 0 -54 12 -18 106 40 108 37 118 -46 122 l-59 3 3 174 3 173
334 -1 333 -2 27 -25z m-772 -147 c-2 -93 -3 -170 -3 -173 0 -3 -7 6 -15 20
-10 18 -14 61 -15 153 0 117 8 167 28 167 4 0 6 -75 5 -167z m-163 -3 l0 -110
-90 0 -90 0 0 110 0 110 90 0 90 0 0 -110z m280 -247 c0 -23 -35 -93 -46 -93
-17 0 -17 -3 2 53 9 26 22 47 30 47 8 0 14 -3 14 -7z m290 -278 c0 -12 -14
-15 -65 -15 -51 0 -65 3 -65 15 0 12 14 15 65 15 51 0 65 -3 65 -15z m30 -190
c0 -12 -13 -15 -55 -15 -42 0 -55 3 -55 15 0 12 13 15 55 15 42 0 55 -3 55
-15z"/>
<path d="M1371 1176 c-26 -15 -50 -51 -51 -79 -1 -56 61 -105 118 -92 81 17
95 132 21 170 -34 18 -57 18 -88 1z m67 -79 c4 -21 -25 -34 -40 -19 -8 8 -8
16 2 27 16 19 34 15 38 -8z"/>
</g>
</svg>
