<?xml version="1.0" encoding="utf-8"?>
<!-- Generator: Adobe Illustrator 23.0.1, SVG Export Plug-In . SVG Version: 6.00 Build 0)  -->
<svg version="1.1" id="Слой_1" xmlns="http://www.w3.org/2000/svg" xmlns:xlink="http://www.w3.org/1999/xlink" x="0px" y="0px"
	 viewBox="0 0 20 20" style="enable-background:new 0 0 20 20;" xml:space="preserve">
<style type="text/css">
	.st0{fill:#BE0C26;}
</style>
<path class="st0" d="M14.4,19.1H5.7c-0.6,0-1.1-0.5-1.1-1.1V2.8c0-0.6,0.5-1.1,1.1-1.1h8.7c0.6,0,1.1,0.5,1.1,1.1V18
	C15.5,18.6,15,19.1,14.4,19.1z M5.7,2.7c-0.1,0-0.1,0.1-0.1,0.1V18c0,0.1,0.1,0.1,0.1,0.1h8.7c0.1,0,0.1-0.1,0.1-0.1V2.8
	c0-0.1-0.1-0.1-0.1-0.1H5.7z"/>
<rect x="8.3" y="1" class="st0" width="3.5" height="1.5"/>
<polygon class="st0" points="7.4,10 10.9,4.5 10.3,8.4 12.9,10 9.1,16.1 9.9,11.3 "/>
</svg>
