<?xml version="1.0" standalone="no"?>
<!DOCTYPE svg PUBLIC "-//W3C//DTD SVG 20010904//EN"
 "http://www.w3.org/TR/2001/REC-SVG-20010904/DTD/svg10.dtd">
<svg version="1.0" xmlns="http://www.w3.org/2000/svg"
 width="27.000000pt" height="27.000000pt" viewBox="0 0 27.000000 27.000000"
 preserveAspectRatio="xMidYMid meet">

<g transform="translate(0.000000,27.000000) scale(0.100000,-0.100000)"
fill="#000000" stroke="none">
<path d="M107 249 c-11 -12 -25 -18 -34 -15 -22 9 -45 -13 -38 -35 4 -11 -2
-25 -14 -36 -12 -10 -21 -22 -21 -28 0 -6 9 -18 21 -28 12 -11 18 -25 14 -36
-7 -22 16 -44 38 -35 9 3 23 -3 34 -15 22 -26 34 -26 56 0 11 12 25 18 34 15
22 -9 45 13 38 35 -4 11 2 25 14 36 12 10 21 22 21 28 0 6 -9 18 -21 28 -12
11 -18 25 -14 36 7 22 -16 44 -38 35 -9 -3 -23 3 -34 15 -22 26 -34 26 -56 0z
m43 -4 c0 -15 6 -18 50 -19 20 -1 25 -6 26 -26 1 -44 4 -50 19 -50 8 0 15 -7
15 -15 0 -8 -7 -15 -15 -15 -15 0 -18 -6 -19 -50 -1 -20 -6 -25 -26 -26 -44
-1 -50 -4 -50 -19 0 -8 -7 -15 -15 -15 -8 0 -15 7 -15 15 0 15 -6 18 -50 19
-20 1 -25 6 -26 26 -1 44 -4 50 -19 50 -8 0 -15 7 -15 15 0 8 7 15 15 15 15 0
18 6 19 50 1 20 6 25 26 26 44 1 50 4 50 19 0 8 7 15 15 15 8 0 15 -7 15 -15z"/>
<path d="M96 174 c-20 -20 -20 -58 0 -78 20 -20 58 -20 78 0 34 34 9 94 -39
94 -13 0 -31 -7 -39 -16z m72 -6 c15 -15 15 -51 0 -66 -15 -15 -51 -15 -66 0
-28 28 -7 78 33 78 12 0 26 -5 33 -12z"/>
</g>
</svg>
