<svg aria-hidden="true" style="position: absolute; width: 0; height: 0; overflow: hidden;" version="1.1" xmlns="http://www.w3.org/2000/svg" xmlns:xlink="http://www.w3.org/1999/xlink">
<defs>
<symbol id="icon-applepay" viewBox="0 0 32 32">
<path d="M5.851 11.045c-0.376 0.449-0.976 0.803-1.576 0.752-0.075-0.607 0.219-1.251 0.563-1.649 0.376-0.461 1.032-0.788 1.563-0.815 0.063 0.632-0.181 1.251-0.549 1.712zM6.393 11.917c-0.868-0.051-1.613 0.5-2.024 0.5-0.42 0-1.051-0.475-1.739-0.461-0.893 0.013-1.724 0.524-2.18 1.34-0.939 1.629-0.244 4.044 0.661 5.371 0.444 0.657 0.976 1.377 1.676 1.352 0.661-0.025 0.924-0.436 1.724-0.436 0.807 0 1.037 0.436 1.739 0.424 0.724-0.013 1.18-0.657 1.624-1.315 0.507-0.747 0.713-1.472 0.725-1.511-0.013-0.013-1.4-0.549-1.413-2.167-0.012-1.353 1.093-1.997 1.144-2.035-0.624-0.936-1.6-1.037-1.937-1.063zM11.413 10.085v9.852h1.513v-3.368h2.093c1.912 0 3.256-1.328 3.256-3.248s-1.319-3.236-3.205-3.236zM12.927 11.375h1.744c1.312 0 2.061 0.707 2.061 1.952s-0.749 1.96-2.068 1.96h-1.739zM21.039 20.012c0.951 0 1.832-0.485 2.232-1.257h0.031v1.183h1.4v-4.904c0-1.421-1.125-2.339-2.856-2.339-1.607 0-2.793 0.929-2.837 2.205h1.363c0.112-0.607 0.668-1.004 1.431-1.004 0.925 0 1.444 0.436 1.444 1.239v0.543l-1.888 0.115c-1.756 0.107-2.707 0.833-2.707 2.097 0 1.276 0.981 2.123 2.388 2.123zM21.445 18.844c-0.807 0-1.32-0.392-1.32-0.992 0-0.62 0.495-0.98 1.439-1.037l1.68-0.107v0.556c0 0.923-0.773 1.58-1.799 1.58zM26.571 22.617c1.475 0 2.168-0.569 2.773-2.295l2.656-7.533h-1.537l-1.781 5.82h-0.031l-1.781-5.82h-1.581l2.561 7.173-0.137 0.436c-0.231 0.739-0.605 1.023-1.275 1.023-0.119 0-0.349-0.013-0.444-0.025v1.183c0.088 0.025 0.463 0.037 0.577 0.039z"></path>
</symbol>
<symbol id="icon-googlepay" viewBox="0 0 32 32">
<path d="M32 13.333l-4.179 9.333h-1.291l1.551-3.267-2.748-6.067h1.36l1.987 4.653h0.027l1.931-4.653zM14.644 16.221v3.779h-1.311v-9.333h3.476c0.025-0.001 0.053-0.001 0.082-0.001 0.831 0 1.59 0.306 2.171 0.812l-0.004-0.003c0.611 0.503 0.953 1.22 0.941 1.971 0 0.009 0 0.020 0 0.030 0 0.788-0.366 1.49-0.937 1.946l-0.005 0.004c-0.607 0.531-1.357 0.795-2.249 0.795zM14.641 11.816v3.259h2.197c0.487 0.013 0.957-0.163 1.297-0.483 0.336-0.3 0.527-0.711 0.527-1.141s-0.191-0.84-0.527-1.14c-0.321-0.307-0.757-0.496-1.237-0.496-0.021 0-0.043 0-0.064 0.001h0.003zM22.629 13.333c0.836 0 1.496 0.232 1.98 0.696 0.483 0.464 0.724 1.101 0.724 1.909v3.857h-1.081v-0.869h-0.049c-0.468 0.716-1.091 1.073-1.867 1.073-0.664 0-1.219-0.204-1.667-0.613-0.412-0.366-0.67-0.898-0.67-1.489 0-0.015 0-0.031 0.001-0.046v0.002c0-0.647 0.236-1.161 0.707-1.544s1.1-0.573 1.887-0.575c0.671 0 1.224 0.128 1.657 0.383v-0.268c0-0.004 0-0.009 0-0.014 0-0.408-0.18-0.775-0.465-1.024l-0.002-0.001c-0.28-0.266-0.66-0.429-1.078-0.429-0.005 0-0.009 0-0.014 0h0.001c-0.632 0-1.132 0.277-1.499 0.831l-0.996-0.651c0.547-0.817 1.357-1.227 2.431-1.227zM21.167 17.88c0 0.003 0 0.006 0 0.009 0 0.308 0.147 0.582 0.374 0.756l0.002 0.002c0.249 0.204 0.56 0.312 0.879 0.307 0.476-0.001 0.933-0.2 1.271-0.549 0.346-0.32 0.563-0.777 0.563-1.284 0-0.002 0-0.004 0-0.005v0c-0.353-0.293-0.844-0.439-1.475-0.439-0.46 0-0.843 0.116-1.149 0.347-0.309 0.232-0.464 0.516-0.464 0.857zM5.441 10.667c0.020 0 0.043 0 0.067 0 1.379 0 2.635 0.528 3.577 1.393l-0.004-0.003-1.552 1.523c-0.532-0.496-1.248-0.8-2.035-0.8-0.019 0-0.037 0-0.056 0.001h0.003c-1.411 0.009-2.607 0.916-3.048 2.177l-0.007 0.023c-0.108 0.304-0.171 0.656-0.171 1.021s0.063 0.717 0.178 1.043l-0.007-0.022c0.447 1.284 1.644 2.191 3.054 2.2h0.001c0.735 0 1.364-0.184 1.853-0.508 0.572-0.373 0.964-0.96 1.085-1.623h-2.939v-2.053h5.132c0.063 0.359 0.093 0.72 0.093 1.084 0 1.623-0.592 2.996-1.619 3.924-0.901 0.816-2.139 1.288-3.607 1.288-0.007 0-0.014 0-0.022 0-2.093 0-3.91-1.179-4.825-2.909l-0.014-0.030c-0.365-0.696-0.579-1.52-0.579-2.395s0.214-1.699 0.593-2.424l-0.014 0.029c0.929-1.76 2.746-2.939 4.839-2.939 0.008 0 0.016 0 0.024 0h-0.001z"></path>
</symbol>
<symbol id="icon-visa" viewBox="0 0 32 32">
<path d="M23.26 11.497c-0.516-0.195-1.32-0.401-2.32-0.401-2.56 0-4.367 1.291-4.38 3.14-0.016 1.36 1.285 2.125 2.268 2.581 1.009 0.467 1.347 0.76 1.344 1.18-0.007 0.636-0.807 0.924-1.549 0.924-1.021 0-1.581-0.143-2.441-0.5l-0.319-0.148-0.361 2.131c0.621 0.26 1.741 0.483 2.9 0.5 2.721 0 4.5-1.281 4.521-3.252 0.021-1.084-0.68-1.907-2.161-2.584-0.899-0.44-1.459-0.735-1.459-1.181 0-0.395 0.479-0.816 1.479-0.816 0.86-0.013 1.461 0.172 1.94 0.364l0.24 0.108 0.361-2.059zM29.904 11.271h-2c-0.623 0-1.088 0.169-1.361 0.788l-3.847 8.712h2.721l0.544-1.427 3.32 0.003c0.081 0.333 0.32 1.424 0.32 1.424h2.399zM12.88 11.191h2.591l-1.62 9.505h-2.592l1.621-9.508zM6.295 16.429l0.269 1.32 2.535-6.479h2.745l-4.081 9.487h-2.739l-2.24-8.035c-0.047-0.137-0.104-0.231-0.24-0.316-0.757-0.396-1.604-0.719-2.544-0.943l0.033-0.2h4.175c0.565 0.021 1.021 0.2 1.177 0.805l0.909 4.364zM26.705 17.399l1.033-2.659c-0.013 0.027 0.213-0.549 0.344-0.907l0.177 0.82 0.599 2.743h-2.153z"></path>
</symbol>
<symbol id="icon-angle-grinder1" viewBox="0 0 32 32">
<path d="M6.54 4.411c2.337-1.62 5.447-1.278 7.38 0.673l-1.718 1.191c-1.257-1.038-3.096-1.162-4.503-0.187s-1.938 2.743-1.411 4.287l-6.261 4.341c0.392 0.567 0.832 1.092 1.313 1.571 1.597 1.59 3.649 2.673 5.896 3.082 2.925 0.532 5.941-0.122 8.386-1.817 1.057-0.733 1.97-1.634 2.708-2.659l4.229 6.121c0.426 0.616 0.274 1.461-0.339 1.89l-3.92 2.718c-0.617 0.424-1.46 0.269-1.885-0.347l-4.23-6.12c-0.726 0.198-1.47 0.323-2.223 0.371l4.776 6.911c0.715 1.035 1.902 1.549 3.071 1.454l1.611 2.331c1.067 1.544 3.183 1.929 4.726 0.859l0.011-0.007c0.281 0.157 0.649 0.339 1.068 0.492 0.916 0.335 2.376 0.635 3.637-0.239l2.534-1.782c0 0 0-0-0.58-0.839s-0.58-0.839-0.58-0.839l-2.534 1.782c-0.409 0.283-1.013 0.272-1.741 0.012 0.935-1.145 1.045-2.813 0.163-4.089l-1.611-2.331c0.501-1.062 0.438-2.356-0.277-3.391l-4.777-6.91c0.373-0.828 0.648-1.704 0.813-2.612 0.010-0.052 0.019-0.105 0.027-0.157l5.96-4.132 0.58 0.839 1.676-1.162-3.865-5.592-1.676 1.162 0.58 0.839-3.701 2.566c-0.113-0.33-0.241-0.655-0.384-0.975-0.278-0.62-0.614-1.217-1.006-1.784l-2.847 1.974c-2.591-2.871-6.971-3.439-10.235-1.175s-4.276 6.569-2.505 10.010l1.695-1.176c-1.142-2.5-0.367-5.536 1.969-7.156zM24.714 3.804l0.387 0.559-4.472 3.101-0.027-0.808 4.113-2.852zM21.097 29.061l-1.353-1.957 3.352-2.324 1.353 1.957c0.427 0.618 0.273 1.465-0.344 1.893l-1.117 0.775c-0.617 0.428-1.463 0.274-1.89-0.344zM11.951 12.24c1.406-0.975 1.938-2.743 1.411-4.287l4.396-3.048c0.637 1.593 0.822 3.346 0.51 5.062-0.436 2.397-1.804 4.522-3.805 5.909s-4.468 1.922-6.861 1.486c-1.713-0.311-3.287-1.102-4.55-2.26l4.396-3.048c1.257 1.038 3.096 1.162 4.503 0.187zM10.791 10.562c-0.771 0.535-1.829 0.342-2.363-0.43s-0.341-1.832 0.43-2.367c0.771-0.535 1.829-0.342 2.363 0.43s0.341 1.832-0.43 2.367z"></path>
</symbol>
<symbol id="icon-lawnmower" viewBox="0 0 32 32">
<path d="M28.261 23.762l-1.113-3.709c-0.264-0.88-1.059-1.472-1.978-1.472h-0.593l-2.010-4.020c-0.352-0.703-1.060-1.141-1.847-1.141h-2.933l-5.628-12.38c-0.287-0.632-0.92-1.040-1.613-1.040-0.978 0-1.772 0.795-1.772 1.793 0 0.091 0.015 0.182 0.030 0.272h-4.953l-0.465-1.025c-0.287-0.632-0.92-1.040-1.613-1.040-0.978 0-1.772 0.795-1.772 1.793 0 0.251 0.055 0.505 0.159 0.733l5.421 11.925h-1.967c-0.854 0-1.548 0.695-1.548 1.548v8.774c0 0.854 0.695 1.548 1.548 1.548h0.542c-0.017 0.17-0.026 0.342-0.026 0.516 0 2.846 2.315 5.161 5.161 5.161 2.307 0 4.264-1.521 4.923-3.613h9.564c0.256 2.034 1.992 3.613 4.093 3.613 2.277 0 4.129-1.852 4.129-4.129 0-2.145-1.645-3.912-3.739-4.109zM26.159 20.349l1.036 3.454c-1.022 0.169-1.919 0.713-2.542 1.488h-1.943v-2.581h-1.032v2.581h-1.032v-2.581h-1.032v2.581h-1.032v-2.581h-1.032v2.581h-1.032v-2.581h-1.032v2.581h-1.27c-0.48-1.523-1.651-2.738-3.141-3.289l0.846-1.797c0.169-0.359 0.536-0.591 0.934-0.591h12.317c0.46 0 0.857 0.296 0.989 0.735zM5.493 5.678h4.872l3.757 8.266c-0.427 0.378-0.703 0.925-0.703 1.54v0.767l-0.298-0.794c-0.225-0.601-0.808-1.005-1.45-1.005h-2.19l-3.989-8.774zM20.645 18.581v-2.064h1.032v2.064h-1.032zM19.613 18.581h-1.032v-2.064h1.032v2.064zM22.709 18.581v-1.427l0.713 1.427h-0.713zM21.644 15.022l0.231 0.462h-3.294c-0.569 0-1.032 0.463-1.032 1.032v2.064h-3.097v-3.097c0-0.569 0.463-1.032 1.032-1.032h5.237c0.393 0 0.748 0.219 0.923 0.57zM15.484 13.42c-0.152 0-0.3 0.019-0.443 0.051l-3.542-7.792h1.635l3.519 7.742h-1.169zM9.806 1.773c0-0.408 0.332-0.74 0.74-0.74 0.29 0 0.553 0.17 0.673 0.434l0.272 0.598h-1.631c-0.034-0.087-0.055-0.181-0.055-0.292zM11.96 3.098l0.704 1.548h-7.641l-0.703-1.548h7.64zM1.032 1.773c0-0.408 0.332-0.74 0.74-0.74 0.29 0 0.553 0.17 0.673 0.434l7.295 16.048c0.043 0.095 0.066 0.2 0.066 0.326 0 0.408-0.332 0.74-0.74 0.74-0.29 0-0.553-0.17-0.673-0.434l-7.294-16.048c-0.043-0.095-0.066-0.2-0.066-0.326zM3.613 25.291c-0.285 0-0.516-0.231-0.516-0.516v-8.774c0-0.285 0.231-0.516 0.516-0.516h2.436l1.404 3.089c0.287 0.632 0.92 1.040 1.613 1.040 0.978 0 1.772-0.795 1.772-1.793 0-0.251-0.055-0.505-0.159-0.733l-0.729-1.603h1.721c0.214 0 0.408 0.135 0.483 0.335l1.036 2.762h-0.338c-0.795 0-1.529 0.464-1.867 1.184l-0.932 1.976c-0.25-0.037-0.504-0.063-0.764-0.063-2.307 0-4.264 1.522-4.923 3.613h-0.754zM9.29 30.968c-2.277 0-4.129-1.852-4.129-4.129s1.852-4.129 4.129-4.129c2.277 0 4.129 1.852 4.129 4.129s-1.852 4.129-4.129 4.129zM14.425 26.323h9.62c-0.132 0.326-0.223 0.672-0.268 1.032h-9.352c0.017-0.17 0.026-0.342 0.026-0.516s-0.009-0.346-0.026-0.516zM27.871 30.968c-1.708 0-3.097-1.389-3.097-3.097s1.389-3.097 3.097-3.097c1.708 0 3.097 1.389 3.097 3.097s-1.389 3.097-3.097 3.097z"></path>
<path d="M27.871 25.806c-1.139 0-2.064 0.926-2.064 2.064s0.926 2.064 2.064 2.064c1.139 0 2.064-0.926 2.064-2.064s-0.926-2.064-2.064-2.064zM27.871 28.903c-0.569 0-1.032-0.463-1.032-1.032s0.463-1.032 1.032-1.032c0.569 0 1.032 0.463 1.032 1.032s-0.463 1.032-1.032 1.032z"></path>
<path d="M9.29 23.742c-0.607 0-1.197 0.179-1.707 0.515l0.57 0.861c0.34-0.225 0.732-0.344 1.137-0.344 1.139 0 2.064 0.926 2.064 2.064 0 0.404-0.119 0.797-0.344 1.136l0.861 0.57c0.336-0.509 0.515-1.099 0.515-1.706 0-1.708-1.389-3.097-3.097-3.097z"></path>
<path d="M9.29 28.904c-1.139 0-2.064-0.926-2.064-2.064 0-0.404 0.119-0.797 0.344-1.136l-0.861-0.57c-0.336 0.509-0.515 1.099-0.515 1.706 0 1.708 1.389 3.097 3.097 3.097 0.607 0 1.197-0.179 1.707-0.515l-0.57-0.861c-0.34 0.225-0.732 0.344-1.137 0.344z"></path>
</symbol>
<symbol id="icon-driller1" viewBox="0 0 32 32">
<path d="M2.667 12.788h0.533v7.341l-1.371 2.746c-0.151 0.297-0.23 0.625-0.229 0.958v2.821c0 1.178 0.955 2.133 2.133 2.133h10.666c1.178 0 2.134-0.955 2.134-2.133v-3.2c0-0.071-0.014-0.14-0.042-0.205-0.027-0.064-0.066-0.123-0.115-0.172l-2.887-2.887c-0.299-0.301-0.707-0.47-1.132-0.469h-1.158c-0.294 0-0.533-0.239-0.533-0.533v-3.2h0.533c0.884 0 1.6-0.716 1.6-1.6v-1.6h5.867c0.676-0.003 1.277-0.43 1.502-1.067h2.765c1.439-0.001 2.747-0.832 3.36-2.134h4.107c0.882-0.004 1.596-0.718 1.6-1.6 0-0.884-0.716-1.6-1.6-1.6h-4.107c-0.613-1.302-1.921-2.132-3.36-2.133h-2.765c-0.225-0.637-0.826-1.064-1.502-1.067h-16c-1.472 0.002-2.665 1.195-2.667 2.667v4.267c0.002 1.472 1.195 2.665 2.667 2.667zM14.4 27.721h-10.666c-0.589 0-1.067-0.478-1.067-1.067v-2.821c-0-0.166 0.039-0.329 0.114-0.477l1.099-2.201 2.364 2.364c0.3 0.301 0.707 0.47 1.132 0.469h8.091v2.667c0 0.589-0.478 1.067-1.067 1.067zM11.2 20.788h1.158c0.142-0 0.277 0.056 0.377 0.156l1.977 1.977h-7.337c-0.142 0-0.278-0.056-0.378-0.156l-2.731-2.731v-7.246h2.667v4.267c0.002 1.472 1.195 2.665 2.667 2.667h0.098c0.225 0.637 0.826 1.064 1.502 1.067zM9.6 12.788v5.866c-0.884 0-1.6-0.716-1.6-1.6v-4.267h1.6zM11.733 14.387c0 0.295-0.239 0.533-0.533 0.533h-0.533v-2.133h1.067v1.6zM30.933 7.988c0 0.144-0.059 0.282-0.163 0.38-0.098 0.099-0.231 0.154-0.37 0.153h-3.779c0.028-0.176 0.044-0.354 0.046-0.533-0.002-0.179-0.018-0.357-0.046-0.533h3.779c0.295 0 0.533 0.239 0.533 0.533zM25.445 7.104c0.103 0.283 0.156 0.582 0.155 0.884 0 0.304-0.053 0.606-0.157 0.892-0.31 0.88-1.061 1.532-1.976 1.715v-5.213c0.918 0.184 1.67 0.839 1.979 1.723zM22.4 10.654h-2.133v-5.333h2.133v5.333zM1.067 5.854c0-0.884 0.716-1.6 1.6-1.6h16c0.294 0 0.533 0.239 0.533 0.533v0.533h-1.067c-0.294 0-0.533 0.239-0.533 0.533s0.239 0.533 0.533 0.533h1.067v1.067h-1.067c-0.294 0-0.533 0.239-0.533 0.533s0.239 0.533 0.533 0.533h1.067v1.067h-1.067c-0.294 0-0.533 0.239-0.533 0.533s0.239 0.533 0.533 0.533h1.067v0.533c0 0.294-0.239 0.533-0.533 0.533h-16c-0.884 0-1.6-0.717-1.6-1.6v-4.267z"></path>
<path d="M3.2 6.388h2.133c0.295 0 0.533-0.239 0.533-0.533s-0.239-0.533-0.533-0.533h-2.133c-0.294 0-0.533 0.239-0.533 0.533s0.239 0.533 0.533 0.533z"></path>
<path d="M3.2 8.521h2.133c0.295 0 0.533-0.239 0.533-0.533s-0.239-0.533-0.533-0.533h-2.133c-0.294 0-0.533 0.239-0.533 0.533s0.239 0.533 0.533 0.533z"></path>
</symbol>
<symbol id="icon-electric-generator1" viewBox="0 0 32 32">
<path d="M31.5 7.5h-2v-3h-14v-2h-4v2h-1v-2h-4v2h-1.25l-1.75 2.333v0.667h-2v3h2v4.191l-3 1.5v8.309h3v1h2.030c0.25 2.247 2.158 4 4.47 4s4.221-1.753 4.471-4h4.059c0.25 2.247 2.158 4 4.471 4s4.221-1.753 4.471-4h2.029v-15h2v-3zM12.5 3.5h2v1h-2v-1zM7.5 3.5h2v1h-2v-1zM2.5 9.5v-1h1v1h-1zM1.5 23.5v-6.691l2-1v7.691h-2zM10 28.5c-1.759 0-3.216-1.307-3.46-3h1.010c0.232 1.14 1.242 2 2.45 2s2.217-0.86 2.45-2h1.011c-0.244 1.693-1.7 3-3.46 3zM8.592 25.5h2.816c-0.207 0.58-0.757 1-1.408 1s-1.2-0.42-1.408-1zM23 28.5c-1.76 0-3.216-1.307-3.46-3h1.011c0.232 1.14 1.242 2 2.449 2s2.217-0.86 2.449-2h1.011c-0.244 1.693-1.7 3-3.46 3zM21.592 25.5h2.816c-0.207 0.58-0.757 1-1.408 1s-1.2-0.42-1.408-1zM28.5 24.5h-24v-17.334l1.25-1.667h22.75v19zM30.5 9.5h-1v-1h1v1z"></path>
<path d="M27.5 6.5h-14v9h14v-9zM26.5 10.5h-5v-3h5v3zM14.5 14.5v-7h6v4h6v3h-12z"></path>
<path d="M17.5 8.5c-1.103 0-2 0.897-2 2s0.897 2 2 2c1.103 0 2-0.897 2-2s-0.897-2-2-2zM17.5 11.5c-0.552 0-1-0.448-1-1s0.448-1 1-1c0.552 0 1 0.448 1 1s-0.448 1-1 1z"></path>
<path d="M23.5 8.5h-1v1h1v-1z"></path>
<path d="M25.5 8.5h-1v1h1v-1z"></path>
<path d="M25.5 12.5h-1v1h1v-1z"></path>
<path d="M23.5 12.5h-1v1h1v-1z"></path>
<path d="M21.5 12.5h-1v1h1v-1z"></path>
<path d="M7.744 14.186c-0.101 0.303-0.050 0.64 0.138 0.899s0.49 0.415 0.811 0.415c0.38 0 0.723-0.211 0.893-0.552l2.724-5.448h-2.115l1-3h-3.566l-1.8 6h2.478l-0.562 1.686zM7.172 11.5l1.2-4h1.434l-1 3h1.886l-1.998 4.002 1.001-3.002h-2.522z"></path>
<path d="M19 16.5h-12c-0.827 0-1.5 0.673-1.5 1.5v4c0 0.827 0.673 1.5 1.5 1.5h12c0.827 0 1.5-0.673 1.5-1.5v-4c0-0.827-0.673-1.5-1.5-1.5zM19 22.5h-12c-0.276 0-0.5-0.224-0.5-0.5v-4c0-0.276 0.224-0.5 0.5-0.5h12c0.276 0 0.5 0.224 0.5 0.5v0.5h-1.5c-0.827 0-1.5 0.673-1.5 1.5s0.673 1.5 1.5 1.5h1.5v0.5c0 0.276-0.224 0.5-0.5 0.5zM19.5 19.5v1h-1.5c-0.276 0-0.5-0.224-0.5-0.5s0.224-0.5 0.5-0.5h1.5z"></path>
<path d="M22.5 23.5h5v-7h-5v7zM23.5 17.5h3v5h-3v-5z"></path>
</symbol>
<symbol id="icon-mask1" viewBox="0 0 32 32">
<path d="M29 7h-2.5v-4.5c0-0.398-0.158-0.779-0.439-1.061s-0.663-0.439-1.061-0.439h-18c-0.398 0-0.779 0.158-1.061 0.439s-0.439 0.663-0.439 1.061v4.5h-2.5c-0.133 0-0.26 0.053-0.354 0.146s-0.146 0.221-0.146 0.354v8c0 0.133 0.053 0.26 0.146 0.354s0.221 0.146 0.354 0.146h2.5v4.5c0 2.785 1.106 5.456 3.075 7.425s4.64 3.075 7.425 3.075c2.785 0 5.456-1.106 7.425-3.075s3.075-4.64 3.075-7.425v-4.5h2.5c0.133 0 0.26-0.053 0.354-0.146s0.146-0.221 0.146-0.354v-8c0-0.133-0.053-0.26-0.146-0.354s-0.221-0.146-0.354-0.146zM5.5 15h-2v-7h2v7zM25.5 20.5c0 2.52-1.001 4.936-2.783 6.717s-4.198 2.783-6.717 2.783c-2.52 0-4.936-1.001-6.718-2.783s-2.782-4.198-2.782-6.717v-15.5h19v15.5zM25.5 4h-19v-1.5c0-0.133 0.053-0.26 0.146-0.354s0.221-0.146 0.354-0.146h18c0.133 0 0.26 0.053 0.354 0.146s0.146 0.221 0.146 0.354v1.5zM28.5 15h-2v-7h2v7z"></path>
<path d="M24.5 6h-17v10h17v-10zM23.5 9.293l-2.353 2.354 0.707 0.707 1.647-1.646v4.293h-14.222l5.56-5.133-0.678-0.734-5.661 5.225v-1.15l2.354-2.354-0.707-0.707-1.646 1.646v-4.793h14.221l-5.56 5.133 0.678 0.734 5.661-5.225v1.651z"></path>
<path d="M11 17h-3.5v1h3.5v-1z"></path>
<path d="M13 17h-1v1h1v-1z"></path>
<path d="M15.958 28l0.083 1c0.064-0.005 6.367-0.596 7.941-6.367l-0.965-0.263c-1.388 5.086-6.829 5.612-7.059 5.63z"></path>
<path d="M24.5 17h-1v1h1v-1z"></path>
</symbol>
<symbol id="icon-concrete-mixer1" viewBox="0 0 32 32">
<path d="M31.015 10.031c-0.431-0.554-0.862-1.108-1.231-1.662-0.185-0.246-0.369-0.369-0.677-0.369-1.415 0-2.831 0-4.185 0-0.492 0-0.615 0.185-0.677 0.677 0 0.369 0 0.677 0 1.046 0 0.308-0.062 0.369-0.369 0.369-1.108 0-0.862 0.123-1.292-0.8-0.8-1.908-1.6-3.815-2.462-5.662 0-0.062-0.062-0.123-0.062-0.185-0.123-0.369-0.431-0.554-0.8-0.554-0.738 0-1.477 0-2.215 0-1.415 0-2.831 0-4.246 0-0.492 0-0.8 0.185-0.985 0.615-0.862 2.031-1.723 4.062-2.585 6.031 0 0.062-0.062 0.123-0.062 0.185-0.062 0.308-0.308 0.369-0.554 0.369-0.185 0-0.369 0-0.554 0-0.246 0-0.369-0.123-0.369-0.369 0-0.369 0-0.677 0-1.046 0-0.492-0.185-0.677-0.677-0.677-0.554 0-1.108 0-1.662 0-0.492 0-0.615 0.123-0.615 0.615 0 0.123 0 0.246-0.062 0.308 0 0 0 0 0 0s0 0 0 0 0 0 0 0c-0.123 0-0.185-0.123-0.246-0.246-0.308-0.738-0.677-1.477-0.923-2.215-0.246-0.677-0.985-1.108-1.6-1.046-0.677 0.123-1.231 0.738-1.231 1.477 0 3.077 0 6.154 0 9.231 0 0.862 0.615 1.477 1.477 1.477 0.8 0 1.415-0.615 1.415-1.415 0-0.246 0.062-0.492 0.185-0.677 0.246-0.492 0.492-0.923 0.738-1.415 0.062-0.062 0.062-0.185 0.185-0.185 0 0 0-0.062 0.062-0.062 0 0 0 0.062 0 0.062 0.062 0.062 0.062 0.185 0.062 0.246s0 0.185 0 0.246c0 2.585 0 5.169 0 7.815 0 0.369-0.123 0.554-0.431 0.738-1.354 0.738-2.092 1.908-2.154 3.446-0.062 0.862 0.185 1.662 0.677 2.338 0.8 1.169 1.908 1.785 3.323 1.785 1.785 0 3.2-1.046 3.754-2.585 0.123-0.369 0.308-0.615 0.738-0.677 3.508-0.677 7.015-1.415 10.523-2.092 0.677-0.123 0.677-0.123 0.554 0.554-0.492 2.277 1.169 4.492 3.508 4.8 2.277 0.246 4.246-1.477 4.431-3.569 0.185-1.785-0.615-3.077-2.154-4-0.308-0.185-0.431-0.369-0.431-0.738 0-0.185 0-0.431 0-0.615 0-0.246 0.123-0.308 0.308-0.308 0.308 0 0.615 0 0.985 0 0.615 0 0.738-0.123 0.738-0.738 0-0.308 0-0.615 0-0.985 0-0.246 0.123-0.369 0.369-0.369 0.308 0 0.615 0 0.985 0 0.246 0 0.492 0 0.677-0.246 0.062-0.062 0.062-0.062 0.123-0.062 0-2.892 0-5.723 0-8.615-0.123 0-0.185-0.123-0.308-0.246zM2.585 16c0 0.369-0.185 0.677-0.492 0.615-0.308 0-0.492-0.246-0.492-0.615 0-3.015 0-5.969 0-8.985 0-0.431 0.185-0.615 0.554-0.615 0.308 0 0.492 0.246 0.492 0.615 0 1.477 0 3.015 0 4.492-0.062 1.538-0.062 3.015-0.062 4.492zM4.123 12.492c-0.123 0.308-0.246 0.554-0.431 0.8 0 0-0.062 0-0.062 0 0-0.369 0-0.738 0-1.108 0-0.123 0.062-0.185 0.185-0.185 0.185 0 0.369-0.062 0.431 0.062 0.123 0.123-0.062 0.246-0.123 0.431zM3.631 10.338c0-0.308 0-0.554 0-0.862 0 0 0.062 0 0.062 0 0.246 0.492 0.431 0.985 0.677 1.538-0.738 0-0.738 0-0.738-0.677zM25.231 9.292c0-0.246 0.062-0.369 0.369-0.369 0.677 0 0.677 0 0.677 0.677 0 2.031 0 4 0 6.031 0 2.154 0 4.246 0 6.4 0 0.185 0 0.308-0.246 0.308s-0.554 0.062-0.677-0.062c-0.246-0.123-0.123-0.492-0.123-0.738 0-4.062 0-8.123 0-12.246zM23.631 11.015c0.492 0 0.492 0 0.492 0.554 0 0.492 0 0.492-0.492 0.492s-0.492 0-0.492-0.492c0-0.554 0-0.554 0.492-0.554zM21.969 15.569c-0.369 1.415-1.723 2.585-3.138 2.585-1.908 0.062-3.815 0.062-5.662 0-1.785-0.062-3.262-1.6-3.323-3.446 0-0.492 0-0.923 0-1.415 0-0.246 0.062-0.246 0.246-0.246 1.969 0 3.938 0 5.908 0s3.877 0 5.846 0c0.246 0 0.308 0.062 0.308 0.308-0.123 0.738 0 1.477-0.185 2.215zM11.262 7.262c0.431-1.046 0.923-2.092 1.354-3.2 0.062-0.185 0.185-0.246 0.369-0.246 2.031 0 4 0 6.031 0 0.185 0 0.246 0.062 0.308 0.185 0.8 1.908 1.662 3.815 2.462 5.785 0 0.062 0.062 0.062 0.062 0.185-3.938 0-7.815 0-11.754 0 0.369-0.923 0.8-1.846 1.169-2.708zM9.846 11.015c0.123-0.123 0.431-0.062 0.677-0.062 3.754 0 7.508 0 11.2 0 0.308 0 0.369 0.062 0.308 0.369 0 0.677 0 0.677-0.677 0.677-1.846 0-3.692 0-5.477 0-1.969 0-3.877 0-5.846 0-0.246 0-0.308-0.062-0.308-0.308 0.123-0.185 0-0.492 0.123-0.677zM8.308 11.015c0.062 0 0.062 0 0.123 0 0.246-0.062 0.369 0.062 0.308 0.308 0 0.062 0 0.123 0 0.185 0 0.492 0 0.492-0.492 0.492s-0.492 0-0.492-0.431c0-0.554 0-0.554 0.554-0.554zM7.754 13.354c0-0.246 0.062-0.308 0.308-0.308 0.677 0 0.738 0 0.677 0.677 0 0.8 0 1.662 0.308 2.4 0.615 1.785 2.4 3.015 4.246 3.015 1.723 0 3.508 0 5.231 0 2.585 0 4.431-2.031 4.554-4.185 0.062-0.554 0-1.108 0-1.662 0-0.185 0-0.308 0.246-0.308 0.738 0 0.738 0 0.738 0.738 0 2.031 0 4.062 0 6.092 0 0.246-0.062 0.308-0.308 0.308-2.646 0-5.231 0-7.877 0s-5.231 0-7.877 0c-0.246 0-0.308-0.062-0.308-0.308 0.062-2.092 0.062-4.308 0.062-6.462zM7.754 21.969c0-0.677 0-0.677 0.677-0.677 2.523 0 4.985 0 7.508 0 2.646 0 5.292 0 7.877 0 0.246 0 0.308 0.062 0.308 0.308 0 0.738 0 0.738-0.738 0.738-5.108 0-10.215 0-15.323 0-0.246-0.062-0.308-0.123-0.308-0.369zM5.723 15.631c0-2.154 0-4.246 0-6.4 0-0.246 0.062-0.308 0.246-0.246 0.246 0.062 0.554-0.123 0.677 0.062 0.123 0.123 0.062 0.431 0.062 0.677 0 4.123 0 8.185 0 12.308 0 0.246-0.062 0.369-0.308 0.308-0.185-0.062-0.492 0.062-0.615-0.062s-0.062-0.431-0.062-0.677c0-1.969 0-4 0-5.969zM6.215 29.477c-1.723 0-3.015-1.354-3.015-3.077 0-1.662 1.354-3.077 3.077-3.077 1.662 0 3.077 1.415 3.077 3.077-0.062 1.662-1.477 3.077-3.138 3.077zM12.369 25.846c-0.677 0.123-1.354 0.308-2.031 0.431-0.246-1.538-0.308-1.662-1.354-2.954 4.677 0 9.292 0 13.908 0-0.246 0.369-0.554 0.554-0.985 0.615-3.138 0.615-6.338 1.292-9.538 1.908zM28.738 26.4c0 1.723-1.354 3.077-3.077 3.077s-3.077-1.354-3.077-3.077c0-1.723 1.415-3.077 3.077-3.077 1.723 0 3.077 1.354 3.077 3.077zM27.754 20.246c-0.492 0-0.492 0-0.492-0.492 0-0.554 0-0.554 0.492-0.554s0.492 0 0.492 0.492c0 0.554 0 0.554-0.492 0.554zM30.092 18.154c-0.862 0-1.723 0-2.585 0-0.185 0-0.246-0.062-0.246-0.246 0-1.477 0-2.954 0-4.369 0-1.477 0-2.892 0-4.369 0-0.185 0.062-0.246 0.246-0.246 0.431 0 0.862 0 1.292 0 0.123 0 0.246 0.062 0.369 0.185 0.308 0.492 0.677 0.923 1.046 1.415 0.062 0.123 0.123 0.246 0.123 0.369 0 2.338 0 4.677 0 7.015 0 0.185-0.062 0.246-0.246 0.246z"></path>
<path d="M13.415 7.015c-0.185-0.062-0.369-0.123-0.554-0.246-0.246-0.123-0.308-0.062-0.369 0.185-0.123 0.369-0.308 0.738-0.431 1.046-0.123 0.246-0.308 0.554-0.246 0.677 0.123 0.185 0.431 0.246 0.677 0.369 0.185 0.062 0.246 0.062 0.308-0.123 0.246-0.554 0.492-1.108 0.677-1.662 0-0.062 0.062-0.062 0.062-0.185-0.062 0-0.062 0-0.123-0.062z"></path>
<path d="M13.969 5.477c-0.062 0-0.123-0.062-0.185-0.062-0.615-0.246-0.615-0.246-0.862 0.431 0 0.062-0.062 0.123 0 0.185 0.246 0.123 0.554 0.246 0.8 0.369 0.062 0 0.123-0.062 0.123-0.123 0.062-0.123 0.123-0.308 0.185-0.431 0.185-0.246 0.123-0.308-0.062-0.369z"></path>
<path d="M28.8 13.046c-0.492 0-0.492 0-0.492 0.492 0 0.554 0 0.554 0.492 0.554 0.554 0 0.554 0 0.554-0.554-0.062-0.492-0.062-0.492-0.554-0.492z"></path>
<path d="M28.738 12c0.554 0 0.554 0 0.554-0.554 0-0.492 0-0.492-0.492-0.492-0.554 0-0.554 0-0.554 0.554 0 0.492 0 0.492 0.492 0.492z"></path>
<path d="M6.215 24.862c-0.862 0-1.538 0.677-1.538 1.538s0.677 1.538 1.538 1.538c0.862 0 1.538-0.677 1.538-1.538s-0.677-1.538-1.538-1.538zM6.215 26.892c-0.308 0-0.492-0.185-0.492-0.492s0.185-0.492 0.492-0.492c0.308 0 0.492 0.185 0.492 0.492s-0.185 0.492-0.492 0.492z"></path>
<path d="M24.185 26.4c0 0.862 0.738 1.538 1.538 1.538 0.862 0 1.538-0.677 1.538-1.538s-0.677-1.538-1.538-1.538c-0.862-0.062-1.6 0.677-1.538 1.538zM25.723 25.908c0.308 0 0.492 0.246 0.492 0.492 0 0.308-0.246 0.492-0.492 0.492-0.308 0-0.492-0.185-0.492-0.492s0.185-0.492 0.492-0.492z"></path>
</symbol>
<symbol id="icon-compressor1" viewBox="0 0 32 32">
<path d="M9.32 4.66h1.864v1.864h-1.864v-1.864z"></path>
<path d="M15.223 22.68h11.184v-5.903h-11.184v5.903zM17.087 20.816v-2.175h7.456v2.175h-7.456z"></path>
<path d="M9.631 25.476h-1.864v1.864h1.864v-1.864z"></path>
<path d="M22.135 4.687l-10.498-3.546c-0.437-0.136-0.902-0.209-1.384-0.209-2.574 0-4.66 2.086-4.66 4.66 0 1.525 0.732 2.878 1.864 3.728v2.796h-2.485c-2.745 0-4.971 2.226-4.971 4.971v5.282c0 2.454 1.779 4.493 4.118 4.898 0.403 2.163 2.301 3.801 4.581 3.801 2.255 0 4.135-1.601 4.567-3.728h11.278v1.864h-1.864v1.864h5.592v-1.864h-1.864v-1.864h0.621c2.745 0 4.971-2.226 4.971-4.971v-5.282c0-2.745-2.226-4.971-4.971-4.971h-2.485v-4.66c0-1.413-1.048-2.581-2.409-2.77zM10.252 8.388c-1.544 0-2.796-1.252-2.796-2.796s1.252-2.796 2.796-2.796c1.544 0 2.796 1.252 2.796 2.796s-1.252 2.796-2.796 2.796zM14.913 5.592c0-0.51-0.082-1-0.233-1.459l4.838 1.636c-0.355 0.469-0.566 1.053-0.566 1.687 0 0.327 0.056 0.641 0.159 0.932h-5.13c0.585-0.779 0.932-1.747 0.932-2.796zM22.68 10.252v1.864h-13.359v-1.864h13.359zM21.748 6.524c0.515 0 0.932 0.417 0.932 0.932s-0.417 0.932-0.932 0.932c-0.515 0-0.932-0.417-0.932-0.932s0.417-0.932 0.932-0.932zM27.029 13.981c1.716 0 3.107 1.391 3.107 3.107v5.282c0 1.716-1.391 3.107-3.107 3.107h-13.763c-0.432-2.127-2.312-3.728-4.567-3.728-2.216 0-4.071 1.547-4.544 3.62-1.32-0.358-2.291-1.565-2.291-2.999v-5.282c0-1.716 1.391-3.107 3.107-3.107h22.058zM11.495 26.408c0 1.544-1.252 2.796-2.796 2.796s-2.796-1.252-2.796-2.796c0-1.544 1.252-2.796 2.796-2.796s2.796 1.252 2.796 2.796z"></path>
</symbol>
</defs>
</svg>
